<svg width="360" height="800" viewBox="0 0 360 800" fill="none" xmlns="http://www.w3.org/2000/svg">
<path opacity="0.8" fill-rule="evenodd" clip-rule="evenodd" d="M282.394 333.117L282.704 333.134L284.487 332.529H284.368C283.711 332.721 283.053 332.918 282.394 333.118M275.93 335.103L276.76 335.201C277.656 334.884 278.549 334.571 279.439 334.26L278.701 334.238C277.781 334.522 276.857 334.81 275.929 335.102L275.93 335.103ZM272.38 334.753L272.781 334.787L274.631 334.198H274.4C273.728 334.379 273.052 334.564 272.375 334.753L272.38 334.753ZM269.525 337.163C269.918 337.236 270.308 337.309 270.697 337.385C271.815 336.977 272.929 336.573 274.037 336.175C273.659 336.139 273.28 336.101 272.899 336.068C271.776 336.427 270.649 336.791 269.52 337.162L269.525 337.163ZM265.984 336.574L266.884 336.715C267.794 336.411 268.702 336.111 269.607 335.816L268.78 335.767C267.848 336.03 266.914 336.299 265.979 336.572L265.984 336.574ZM262.456 336.097L262.953 336.157L264.881 335.588L264.539 335.577C263.843 335.747 263.147 335.919 262.45 336.095L262.456 336.097ZM263.11 339.31C263.576 339.432 264.039 339.556 264.499 339.683C265.796 339.196 267.086 338.716 268.369 338.241C267.907 338.162 267.442 338.083 266.975 338.009C265.691 338.435 264.4 338.868 263.105 339.308L263.11 339.31ZM259.638 338.468C260.048 338.56 260.456 338.655 260.864 338.751C261.994 338.363 263.118 337.98 264.237 337.601C263.839 337.547 263.438 337.495 263.037 337.444C261.906 337.779 260.771 338.119 259.633 338.466L259.638 338.468ZM256.132 337.737L257.109 337.933C258.037 337.646 258.961 337.363 259.881 337.083L258.971 336.994C258.025 337.235 257.077 337.482 256.126 337.735L256.132 337.737ZM252.656 337.116L253.241 337.214L255.244 336.676L254.795 336.644L252.656 337.116ZM256.662 341.54C257.173 341.718 257.681 341.901 258.185 342.086C259.624 341.533 261.054 340.986 262.477 340.446C261.96 340.315 261.441 340.186 260.92 340.059C259.506 340.544 258.085 341.037 256.657 341.538L256.662 341.54ZM253.301 340.435C253.78 340.582 254.257 340.733 254.73 340.888C256.028 340.43 257.319 339.977 258.604 339.53C258.126 339.427 257.645 339.327 257.162 339.228C255.879 339.622 254.59 340.024 253.296 340.433L253.301 340.435ZM249.877 339.439C250.306 339.557 250.731 339.676 251.151 339.797C252.288 339.435 253.419 339.077 254.544 338.725C254.124 338.649 253.702 338.574 253.278 338.502C252.149 338.807 251.014 339.119 249.872 339.437L249.877 339.439ZM246.427 338.55C246.777 338.635 247.125 338.72 247.473 338.808C248.414 338.546 249.352 338.284 250.287 338.022L249.295 337.878C248.341 338.099 247.383 338.323 246.422 338.548L246.427 338.55ZM242.997 337.765L243.67 337.911L245.743 337.416L245.191 337.35C244.459 337.485 243.727 337.624 242.994 337.765H242.997ZM239.679 337.091L239.77 337.108L240.279 337.01L239.679 337.091ZM250.147 343.855C250.684 344.098 251.213 344.346 251.741 344.596C253.305 343.981 254.859 343.373 256.404 342.774C255.858 342.583 255.306 342.396 254.748 342.213C253.218 342.751 251.681 343.298 250.139 343.855H250.147ZM246.926 342.481C247.444 342.691 247.953 342.912 248.465 343.129C249.907 342.605 251.341 342.091 252.767 341.585C252.24 341.422 251.71 341.264 251.176 341.11C249.761 341.56 248.342 342.017 246.918 342.48L246.926 342.481ZM243.63 341.205C244.123 341.384 244.612 341.569 245.098 341.754C246.396 341.329 247.688 340.909 248.973 340.494C248.481 340.363 247.985 340.232 247.486 340.101C246.202 340.466 244.914 340.834 243.622 341.207L243.63 341.205ZM240.263 340.041C240.709 340.187 241.152 340.336 241.593 340.488C242.733 340.156 243.869 339.829 244.999 339.507C244.559 339.404 244.117 339.304 243.673 339.205C242.544 339.479 241.408 339.758 240.263 340.041ZM236.877 338.973L237.984 339.31C238.935 339.072 239.882 338.836 240.826 338.603L239.762 338.393C238.807 338.583 237.846 338.776 236.879 338.973H236.877ZM233.503 338.005L234.274 338.219L236.408 337.78L235.733 337.665L233.503 338.005ZM230.256 337.153L230.469 337.207L231.639 337.02H231.62L230.256 337.153ZM243.564 346.251C244.11 346.561 244.647 346.881 245.185 347.199C246.84 346.534 248.486 345.88 250.124 345.235C249.561 344.979 248.994 344.727 248.423 344.48C246.814 345.061 245.196 345.651 243.567 346.251H243.564ZM240.493 344.599C241.034 344.878 241.563 345.169 242.096 345.454C243.645 344.882 245.186 344.317 246.719 343.758C246.52 343.676 246.327 343.589 246.126 343.509C245.77 343.367 245.413 343.227 245.054 343.089C243.544 343.584 242.024 344.088 240.496 344.599H240.493ZM237.336 343.046C237.862 343.295 238.376 343.554 238.896 343.809C240.33 343.327 241.757 342.852 243.174 342.384C242.637 342.187 242.095 341.995 241.55 341.807C240.156 342.214 238.752 342.628 237.338 343.046H237.336ZM234.108 341.594C234.609 341.81 235.098 342.036 235.592 342.258C236.894 341.865 238.189 341.482 239.477 341.107C238.97 340.941 238.46 340.777 237.946 340.616C236.676 340.937 235.398 341.263 234.111 341.594H234.108ZM230.826 340.233C231.281 340.414 231.727 340.606 232.179 340.791C233.326 340.494 234.468 340.2 235.605 339.907C235.149 339.776 234.691 339.645 234.231 339.514C233.103 339.751 231.969 339.99 230.829 340.233H230.826ZM227.519 338.963C227.911 339.108 228.301 339.254 228.689 339.401C229.648 339.194 230.602 338.99 231.552 338.788L230.405 338.494C229.452 338.647 228.49 338.803 227.519 338.963ZM224.231 337.793L225.086 338.087L227.271 337.723L226.493 337.542L224.231 337.793ZM221.055 336.737L221.392 336.846L222.658 336.7L222.484 336.664L221.055 336.737ZM73.4672 155.821C72.8354 156.666 72.1992 157.512 71.5728 158.358L71.5392 158.439C72.1491 157.637 72.7699 156.835 73.3853 156.034L73.4672 155.821ZM236.933 348.721C237.479 349.102 238.031 349.485 238.572 349.879C240.298 349.174 242.015 348.478 243.723 347.79C243.157 347.465 242.589 347.143 242.013 346.828C240.329 347.449 238.635 348.08 236.933 348.72V348.721ZM234.034 346.785C234.58 347.136 235.126 347.495 235.662 347.856C237.294 347.243 238.917 346.636 240.531 346.036C239.965 345.74 239.393 345.449 238.818 345.163C237.232 345.698 235.638 346.238 234.034 346.784V346.785ZM231.046 344.942C231.592 345.263 232.119 345.599 232.653 345.93C234.181 345.406 235.701 344.889 237.213 344.378C236.651 344.112 236.08 343.853 235.511 343.592C234.031 344.035 232.543 344.485 231.046 344.941V344.942ZM227.968 343.198C228.5 343.492 229.018 343.792 229.543 344.09C230.957 343.658 232.363 343.233 233.763 342.814C233.216 342.576 232.655 342.349 232.101 342.118C230.731 342.47 229.353 342.829 227.968 343.197V343.198ZM224.815 341.541C225.324 341.8 225.825 342.066 226.328 342.326C227.613 341.984 228.893 341.646 230.166 341.313C229.65 341.108 229.13 340.906 228.606 340.707C227.349 340.981 226.085 341.259 224.815 341.54V341.541ZM221.612 339.965C222.086 340.191 222.556 340.418 223.024 340.646C224.16 340.393 225.291 340.143 226.415 339.896C225.943 339.725 225.467 339.555 224.99 339.387C223.87 339.576 222.744 339.768 221.612 339.964V339.965ZM218.395 338.476C218.808 338.661 219.224 338.843 219.633 339.03L222.496 338.533L221.282 338.132C220.325 338.244 219.363 338.358 218.395 338.475V338.476ZM215.209 337.079C215.523 337.212 215.847 337.341 216.159 337.478L218.366 337.207L217.491 336.939L215.209 337.079ZM212.132 335.791L212.587 335.979L213.932 335.89L213.601 335.792L212.132 335.791ZM78.3939 149.298C77.6356 150.29 76.8745 151.283 76.1235 152.277L75.9606 152.686C76.7043 151.727 77.4581 150.77 78.21 149.812L78.3939 149.298ZM79.9187 145.185C79.2632 146.056 78.6042 146.929 77.956 147.802L77.8705 148.004C78.5077 147.171 79.154 146.341 79.7949 145.509L79.9187 145.185ZM81.5235 141.046L81.0329 141.709L81.5081 141.086L81.5235 141.046ZM230.188 351.276C230.727 351.734 231.27 352.189 231.797 352.661C233.59 351.918 235.375 351.183 237.15 350.457C236.589 350.054 236.007 349.672 235.435 349.284C233.696 349.94 231.947 350.603 230.188 351.276ZM227.464 349.048C228.01 349.477 228.556 349.91 229.088 350.351C230.792 349.7 232.485 349.057 234.168 348.42C233.602 348.048 233.02 347.691 232.438 347.328C230.791 347.895 229.133 348.468 227.464 349.048ZM224.649 346.912C225.195 347.313 225.742 347.721 226.276 348.131C227.881 347.572 229.478 347.019 231.065 346.472C230.498 346.13 229.92 345.796 229.343 345.462C227.786 345.939 226.222 346.423 224.649 346.912ZM221.755 344.862C222.301 345.235 222.832 345.616 223.368 345.997C224.868 345.529 226.36 345.067 227.845 344.61C227.283 344.296 226.716 343.986 226.144 343.681C224.689 344.069 223.226 344.463 221.755 344.862ZM218.785 342.894C219.318 343.236 219.835 343.589 220.358 343.937C221.744 343.56 223.122 343.187 224.493 342.819C223.947 342.537 223.4 342.253 222.845 341.977C221.5 342.28 220.146 342.585 218.785 342.894ZM215.737 341.005C216.252 341.316 216.753 341.634 217.261 341.948C218.519 341.661 219.772 341.376 221.018 341.095C220.496 340.844 219.98 340.588 219.451 340.342C218.221 340.56 216.983 340.781 215.737 341.005ZM212.651 339.192C213.131 339.467 213.605 339.745 214.081 340.023C215.195 339.82 216.304 339.62 217.407 339.424C216.923 339.207 216.448 338.987 215.959 338.774C214.863 338.911 213.76 339.05 212.651 339.191V339.192ZM209.551 337.457C209.975 337.689 210.4 337.92 210.825 338.155L213.647 337.793C213.225 337.617 212.81 337.436 212.385 337.262L209.551 337.457ZM206.473 335.805C206.809 335.982 207.15 336.156 207.484 336.335L209.682 336.177L208.715 335.794L206.473 335.805ZM203.505 334.269C203.697 334.367 203.894 334.465 204.085 334.563L205.462 334.551L204.982 334.371L203.505 334.269ZM83.4343 142.773C82.5604 143.89 81.6865 145.008 80.8244 146.126L80.5704 146.803C81.4316 145.715 82.3 144.626 83.1758 143.537L83.4343 142.773ZM84.8581 138.681C84.077 139.696 83.2959 140.71 82.524 141.724L82.3174 142.247C83.0857 141.266 83.8649 140.284 84.6396 139.296L84.8581 138.681ZM86.3646 134.558C85.6846 135.456 84.9991 136.357 84.331 137.256L84.2135 137.541C84.8744 136.681 85.5453 135.823 86.2162 134.963L86.3646 134.558ZM87.9431 130.435C87.4442 131.107 86.9418 131.779 86.4475 132.452C86.9263 131.82 87.4124 131.191 87.8949 130.56L87.9431 130.435ZM223.36 353.896C223.882 354.435 224.409 354.97 224.919 355.521C226.781 354.74 228.632 353.968 230.472 353.205C229.926 352.725 229.362 352.266 228.804 351.8C227.001 352.491 225.187 353.191 223.362 353.899L223.36 353.896ZM220.822 351.374C221.356 351.885 221.889 352.396 222.41 352.918C224.186 352.23 225.952 351.549 227.71 350.875C227.154 350.424 226.58 349.992 226.012 349.551C224.293 350.153 222.563 350.762 220.824 351.377L220.822 351.374ZM218.193 348.935C218.734 349.42 219.273 349.907 219.802 350.402C221.486 349.806 223.161 349.217 224.828 348.635C224.265 348.212 223.688 347.801 223.114 347.388C221.484 347.9 219.845 348.417 218.195 348.938L218.193 348.935ZM215.482 346.579C216.029 347.037 216.568 347.5 217.099 347.967C218.686 347.465 220.263 346.967 221.833 346.475C221.267 346.083 220.691 345.69 220.115 345.306C218.581 345.726 217.037 346.151 215.484 346.58L215.482 346.579ZM212.698 344.296C213.244 344.727 213.771 345.163 214.303 345.601C215.785 345.189 217.259 344.783 218.726 344.381C218.166 344.015 217.598 343.654 217.027 343.295C215.593 343.625 214.149 343.959 212.698 344.296ZM209.846 342.083C210.377 342.485 210.896 342.892 211.419 343.3C212.787 342.98 214.148 342.663 215.504 342.35C214.957 342.011 214.403 341.678 213.844 341.351C212.518 341.592 211.186 341.836 209.846 342.084V342.083ZM206.939 339.939C207.452 340.31 207.952 340.686 208.458 341.06C209.701 340.828 210.938 340.599 212.169 340.372C211.641 340.067 211.113 339.761 210.577 339.459C209.37 339.617 208.157 339.777 206.939 339.94V339.939ZM203.988 337.864C204.47 338.198 204.942 338.535 205.419 338.87L208.71 338.431C208.218 338.161 207.732 337.889 207.234 337.622L203.988 337.864ZM201.02 335.856C201.453 336.143 201.88 336.434 202.308 336.723L205.109 336.509C204.674 336.282 204.245 336.052 203.806 335.822L201.02 335.856ZM198.086 333.932L199.14 334.619L201.346 334.591C200.999 334.417 200.657 334.243 200.307 334.069L198.086 333.932ZM195.257 332.124L195.913 332.536L197.343 332.62L196.754 332.334L195.257 332.124ZM88.5767 136.267C87.6008 137.487 86.6298 138.708 85.6637 139.93L85.3478 140.831C86.3158 139.631 87.291 138.432 88.2736 137.233L88.5767 136.267ZM89.8985 132.2C89.0045 133.335 88.1161 134.47 87.2331 135.605L86.9463 136.382C87.8281 135.274 88.7172 134.167 89.6136 133.059L89.8985 132.2ZM91.304 128.102C90.5029 129.138 89.701 130.174 88.909 131.211L88.6768 131.806C89.4652 130.801 90.2635 129.797 91.0619 128.793L91.304 128.102ZM92.7915 123.986C92.0896 124.91 91.3868 125.831 90.6932 126.755L90.5475 127.112C91.2321 126.228 91.9258 125.345 92.6185 124.455L92.7915 123.986ZM94.3517 119.863C93.7591 120.657 93.1683 121.45 92.5785 122.245L92.5375 122.343C93.1074 121.594 93.6863 120.847 94.2625 120.098L94.3517 119.863ZM216.457 356.588C216.955 357.211 217.459 357.829 217.942 358.463C219.863 357.65 221.775 356.845 223.677 356.046C223.155 355.488 222.616 354.944 222.08 354.398C220.216 355.124 218.342 355.854 216.457 356.588ZM214.114 353.761C214.627 354.358 215.141 354.953 215.64 355.559C217.48 354.84 219.31 354.126 221.13 353.418C220.593 352.885 220.038 352.37 219.491 351.848C217.708 352.479 215.915 353.116 214.114 353.761ZM211.683 351.012C212.206 351.586 212.731 352.157 213.241 352.739C214.993 352.112 216.736 351.49 218.47 350.874C217.924 350.367 217.357 349.876 216.796 349.379C215.101 349.917 213.395 350.462 211.679 351.013L211.683 351.012ZM209.169 348.34C209.7 348.889 210.231 349.437 210.751 349.993C212.411 349.46 214.062 348.933 215.704 348.411C215.147 347.93 214.577 347.46 214.009 346.989C212.405 347.435 210.792 347.886 209.169 348.341V348.34ZM206.581 345.738C207.115 346.26 207.647 346.785 208.17 347.314C209.731 346.875 211.284 346.441 212.83 346.01C212.272 345.556 211.7 345.112 211.132 344.665C209.623 345.018 208.106 345.376 206.581 345.738ZM203.922 343.198C204.455 343.694 204.983 344.194 205.507 344.697C206.964 344.349 208.413 344.006 209.855 343.668C209.299 343.241 208.731 342.819 208.166 342.398L203.922 343.198ZM201.21 340.719C201.735 341.188 202.255 341.66 202.771 342.134L206.782 341.375C206.235 340.976 205.678 340.58 205.122 340.185L201.21 340.719ZM198.454 338.298C198.962 338.736 199.462 339.176 199.961 339.616L203.602 339.117C203.074 338.749 202.542 338.383 202.005 338.017L198.454 338.298ZM195.666 335.932C196.145 336.333 196.612 336.735 197.086 337.136L200.314 336.879C199.817 336.548 199.317 336.217 198.815 335.885L195.666 335.932ZM192.867 333.633C193.301 333.985 193.725 334.339 194.155 334.693L196.908 334.648C196.462 334.361 196.018 334.073 195.567 333.786L192.867 333.633ZM190.099 331.413L191.173 332.272L193.358 332.393C192.994 332.165 192.635 331.936 192.266 331.705L190.099 331.413ZM187.428 329.309L188.146 329.87L189.587 330.066L188.904 329.647L187.428 329.309ZM185.007 327.426L185.08 327.48L185.38 327.549L185.007 327.426ZM93.8147 129.784C92.7514 131.085 91.6945 132.386 90.644 133.689L90.2899 134.774C91.3471 133.49 92.4116 132.208 93.4833 130.926L93.8147 129.784ZM95.0299 125.749C94.0432 126.974 93.0624 128.2 92.0878 129.427L91.7437 130.422C92.7244 129.214 93.7121 128.007 94.7068 126.801L95.0299 125.749ZM96.3326 121.677C95.4277 122.818 94.528 123.96 93.6335 125.103L93.3231 125.951C94.2207 124.831 95.1243 123.712 96.034 122.594L96.3326 121.677ZM97.719 117.574C96.9034 118.621 96.0911 119.668 95.2821 120.715L95.0281 121.375C95.8329 120.357 96.6467 119.338 97.4605 118.321L97.719 117.574ZM99.1846 113.457C98.4655 114.396 97.7463 115.336 97.0354 116.277L96.8479 116.74C97.5524 115.834 98.2652 114.93 98.9762 114.026L99.1846 113.457ZM100.744 109.283C100.134 110.096 99.5224 110.908 98.9179 111.721L98.8223 111.949C99.414 111.177 100.013 110.406 100.61 109.634L100.744 109.283ZM102.366 105.134L102.127 105.457L102.358 105.156L102.366 105.134ZM209.476 359.334C209.943 360.044 210.414 360.749 210.866 361.471C212.838 360.629 214.8 359.794 216.752 358.967C216.259 358.324 215.751 357.691 215.244 357.064C213.331 357.814 211.408 358.571 209.476 359.334ZM207.338 356.193C207.82 356.88 208.308 357.56 208.778 358.254C210.668 357.507 212.55 356.766 214.422 356.032C213.911 355.413 213.385 354.809 212.862 354.203C211.03 354.862 209.189 355.527 207.338 356.196V356.193ZM205.112 353.131C205.609 353.794 206.113 354.456 206.594 355.128C208.401 354.474 210.199 353.827 211.989 353.188C211.463 352.593 210.92 352.01 210.382 351.43C208.637 351.992 206.88 352.559 205.112 353.131ZM202.807 350.138C203.315 350.779 203.825 351.414 204.321 352.069C206.04 351.511 207.75 350.958 209.452 350.411C208.914 349.841 208.359 349.284 207.813 348.722C206.152 349.19 204.483 349.662 202.807 350.139V350.138ZM200.428 347.208C200.943 347.827 201.459 348.443 201.962 349.073C203.587 348.611 205.204 348.153 206.813 347.698C206.266 347.154 205.71 346.619 205.155 346.081L200.428 347.208ZM197.98 344.333C198.499 344.929 199.019 345.525 199.527 346.126L204.079 345.034C203.533 344.513 202.968 344 202.409 343.483L197.98 344.333ZM195.475 341.516C195.993 342.087 196.511 342.661 197.023 343.236L201.263 342.422C200.717 341.925 200.156 341.435 199.6 340.942L195.475 341.516ZM192.927 338.747C193.437 339.293 193.945 339.839 194.449 340.385L198.352 339.839C197.813 339.37 197.26 338.904 196.713 338.438L192.927 338.747ZM190.338 336.024C190.833 336.537 191.325 337.051 191.815 337.567L195.351 337.272C194.827 336.834 194.297 336.397 193.767 335.96L190.338 336.024ZM187.732 333.353C188.202 333.829 188.669 334.305 189.132 334.781L192.259 334.725C191.764 334.322 191.258 333.919 190.762 333.517L187.732 333.353ZM185.128 330.741C185.556 331.166 185.976 331.589 186.402 332.017L189.066 332.16C188.617 331.805 188.164 331.449 187.712 331.093L185.128 330.741ZM182.549 328.203C182.913 328.556 183.263 328.907 183.62 329.259L184.276 329.348L185.732 329.544L184.603 328.667L182.873 328.275L182.549 328.203ZM180.068 325.791L180.815 326.517L182.223 326.836L181.462 326.252L181.31 326.202L180.068 325.791ZM177.826 323.626L177.985 323.778L178.398 323.915L178.296 323.838L177.826 323.626ZM99.1355 123.342C97.9982 124.703 96.8685 126.064 95.7464 127.428L95.3722 128.668C96.5059 127.32 97.6468 125.972 98.795 124.626C98.9079 124.197 99.0199 123.77 99.1355 123.342ZM100.255 119.327C99.1865 120.626 98.1244 121.926 97.0691 123.226L96.6922 124.398C97.756 123.114 98.8278 121.832 99.9074 120.55L100.255 119.327ZM101.458 115.279C100.462 116.508 99.472 117.738 98.4883 118.968L98.1287 120.023C99.1172 118.814 100.113 117.606 101.115 116.4C101.228 116.023 101.344 115.65 101.458 115.279ZM102.743 111.199C101.825 112.348 100.914 113.499 100.008 114.651L99.6844 115.552C100.595 114.426 101.509 113.301 102.427 112.178L102.743 111.199ZM104.109 107.099C103.279 108.157 102.454 109.215 101.633 110.272L101.346 111.029C102.167 109.996 102.994 108.964 103.826 107.932L104.109 107.099ZM105.571 102.935C104.842 103.886 104.105 104.838 103.38 105.792L103.152 106.367C103.874 105.445 104.604 104.523 105.337 103.602L105.571 102.935ZM107.109 98.7715C106.481 99.603 105.852 100.433 105.23 101.267L105.102 101.574C105.713 100.78 106.329 99.9871 106.95 99.1946L107.109 98.7715ZM108.717 94.6143C108.325 95.1453 107.928 95.6774 107.534 96.2085C107.91 95.7176 108.291 95.2209 108.669 94.7262L108.717 94.6143ZM202.418 362.133C202.848 362.932 203.279 363.731 203.692 364.542C205.709 363.676 207.716 362.816 209.714 361.962C209.259 361.231 208.782 360.512 208.306 359.795C206.355 360.568 204.392 361.347 202.418 362.133ZM200.491 358.675C200.939 359.454 201.388 360.23 201.822 361.018L207.604 358.726C207.126 358.019 206.633 357.324 206.147 356.628C204.269 357.307 202.384 357.989 200.491 358.675ZM198.479 355.29C198.943 356.047 199.407 356.805 199.858 357.572L205.391 355.564C204.895 354.877 204.389 354.207 203.879 353.532L198.479 355.29ZM196.392 351.969C196.868 352.706 197.347 353.441 197.811 354.188L203.084 352.471C202.575 351.809 202.052 351.156 201.536 350.502L196.392 351.969ZM194.233 348.705C194.719 349.423 195.208 350.138 195.682 350.864L200.689 349.436C200.169 348.797 199.636 348.16 199.105 347.531L194.233 348.705ZM192.009 345.491C192.501 346.19 192.999 346.886 193.483 347.588L198.199 346.448C197.671 345.829 197.129 345.217 196.591 344.603L192.009 345.491ZM189.733 342.328C190.23 343.005 190.734 343.682 191.219 344.362L195.637 343.505C195.105 342.908 194.559 342.317 194.017 341.722L189.733 342.328ZM187.405 339.206C187.901 339.862 188.4 340.516 188.888 341.169L192.989 340.589C192.458 340.016 191.914 339.446 191.374 338.874L187.405 339.206ZM185.039 336.121C185.528 336.75 186.021 337.379 186.501 338.009L190.265 337.696C189.74 337.149 189.203 336.602 188.672 336.055L185.71 336.109L185.039 336.121ZM182.647 333.078C183.122 333.677 183.601 334.275 184.07 334.873L185.691 334.844L187.467 334.811C186.957 334.292 186.435 333.773 185.92 333.255L185.089 333.209L182.647 333.078ZM180.245 330.081L181.594 331.75L184.586 331.912C184.103 331.431 183.609 330.947 183.121 330.466L180.245 330.081ZM177.848 327.136L179.081 328.646L181.619 328.989C181.177 328.557 180.726 328.121 180.281 327.689L177.848 327.136ZM175.489 324.271L176.538 325.547L178.541 326.003L177.406 324.911L175.489 324.271ZM173.231 321.543L173.976 322.442L175.305 322.886L174.509 322.124L173.231 321.543ZM171.187 319.088L171.39 319.332L171.776 319.509L171.586 319.326L171.187 319.088ZM104.512 116.973C103.314 118.375 102.125 119.779 100.944 121.185C100.816 121.642 100.692 122.098 100.566 122.555C101.761 121.161 102.962 119.77 104.171 118.381C104.284 117.912 104.396 117.438 104.512 116.973ZM105.54 112.974C104.403 114.325 103.273 115.678 102.151 117.032L101.761 118.351C102.893 117.014 104.032 115.679 105.178 114.344C105.297 113.887 105.419 113.43 105.536 112.974H105.54ZM106.644 108.949C105.573 110.24 104.511 111.533 103.458 112.826L103.068 114.057C104.136 112.778 105.21 111.502 106.292 110.228C106.406 109.798 106.524 109.372 106.644 108.947V108.949ZM107.834 104.885C106.835 106.109 105.841 107.335 104.854 108.562L104.48 109.674C105.475 108.464 106.476 107.257 107.484 106.051L107.834 104.885ZM109.109 100.796C108.183 101.944 107.266 103.094 106.355 104.246L106.001 105.24C106.919 104.109 107.842 102.98 108.772 101.853L109.109 100.796ZM110.474 96.6443C109.635 97.7064 108.801 98.7695 107.971 99.8336L107.649 100.693C108.482 99.6507 109.32 98.6105 110.164 97.5719L110.474 96.6443ZM111.92 92.4802C111.172 93.4448 110.428 94.4101 109.688 95.376L109.433 96.0239C110.169 95.0894 110.91 94.1558 111.656 93.2233L111.92 92.4802ZM113.439 88.317C112.795 89.1645 112.153 90.012 111.514 90.8595L111.356 91.2423C111.983 90.4325 112.617 89.6255 113.251 88.8177L113.439 88.317ZM115.033 84.1509C114.504 84.8607 113.975 85.5723 113.451 86.2831L113.429 86.3341C113.935 85.6705 114.447 85.0099 114.958 84.3473L115.033 84.1509ZM195.291 364.979C195.68 365.873 196.068 366.767 196.443 367.671L202.58 365.02C202.159 364.2 201.726 363.389 201.289 362.581L195.291 364.979ZM193.585 361.197C193.992 362.071 194.397 362.945 194.79 363.828L200.688 361.472C200.246 360.674 199.795 359.884 199.341 359.095L193.585 361.197ZM191.798 357.48C192.221 358.336 192.642 359.191 193.052 360.056L198.702 357.995C198.247 357.216 197.775 356.446 197.303 355.677L191.798 357.48ZM189.938 353.825C190.375 354.661 190.809 355.5 191.234 356.344L196.628 354.577C196.155 353.819 195.671 353.067 195.185 352.319L189.938 353.825ZM188.009 350.219C188.457 351.04 188.902 351.862 189.342 352.685L194.467 351.213C193.981 350.476 193.488 349.741 192.987 349.009L188.009 350.219ZM186.008 346.658C186.467 347.462 186.922 348.266 187.374 349.073L192.221 347.895C191.724 347.176 191.22 346.46 190.71 345.744L186.008 346.658ZM183.964 343.143C184.43 343.928 184.893 344.713 185.347 345.499L189.904 344.615C189.399 343.914 188.889 343.216 188.372 342.519L185.951 342.861L183.964 343.143ZM181.871 339.664C182.339 340.431 182.803 341.199 183.264 341.966L185.797 341.606L187.516 341.364C187.007 340.683 186.491 340.002 185.974 339.323L181.871 339.664ZM179.741 336.216C180.208 336.963 180.675 337.709 181.133 338.454L185.061 338.127C184.554 337.467 184.038 336.808 183.523 336.147L179.741 336.216ZM177.586 332.803C178.041 333.523 178.506 334.245 178.96 334.963L182.546 334.9C182.044 334.264 181.538 333.627 181.028 332.99L177.586 332.803ZM175.412 329.423C175.859 330.11 176.309 330.803 176.748 331.49L179.967 331.666C179.479 331.061 178.985 330.452 178.492 329.844L175.412 329.423ZM173.234 326.086C173.657 326.731 174.085 327.381 174.503 328.023L177.325 328.416L175.921 326.707L173.234 326.086ZM171.079 322.791L172.242 324.558L174.609 325.106L173.322 323.551L171.079 322.791ZM168.961 319.59L169.953 321.087L171.807 321.718L170.706 320.394L168.961 319.59ZM166.936 316.537L167.159 316.873L167.645 317.606L168.853 318.164L168.064 317.215L166.936 316.537ZM165.121 313.799L165.332 314.118L165.652 314.315L165.411 314.025L165.121 313.799ZM109.919 110.703C108.68 112.123 107.449 113.547 106.227 114.973C106.099 115.467 105.974 115.962 105.851 116.458C107.087 115.045 108.331 113.634 109.583 112.226L109.919 110.703ZM110.862 106.718C109.677 108.096 108.5 109.476 107.33 110.857C107.196 111.342 107.057 111.827 106.929 112.313C108.111 110.944 109.3 109.576 110.497 108.212C110.616 107.713 110.74 107.216 110.862 106.718ZM111.876 102.704C110.749 104.033 109.63 105.365 108.517 106.698C108.382 107.156 108.251 107.613 108.118 108.073C109.243 106.753 110.375 105.436 111.513 104.12C111.635 103.647 111.753 103.175 111.876 102.704ZM112.981 98.6498C111.915 99.9253 110.855 101.201 109.803 102.478L109.406 103.754C110.467 102.493 111.535 101.233 112.61 99.975L112.981 98.6498ZM114.159 94.5721C113.161 95.7854 112.169 97.0003 111.184 98.2169C111.052 98.6095 110.918 99.012 110.788 99.4096C111.783 98.21 112.785 97.0114 113.792 95.8138L114.159 94.5721ZM115.434 90.4276C114.508 91.5715 113.588 92.7167 112.674 93.8633L112.297 94.9431C113.216 93.8181 114.142 92.6948 115.073 91.5731L115.434 90.4276ZM116.785 86.2723C115.94 87.3344 115.099 88.3985 114.263 89.4646L113.927 90.3814C114.764 89.3422 115.606 88.3046 116.453 87.2686L116.785 86.2723ZM118.212 82.1052C117.458 83.0711 116.708 84.0384 115.962 85.0069L115.683 85.7216C116.428 84.7831 117.177 83.8463 117.93 82.9111L118.212 82.1052ZM119.724 77.9205C119.069 78.7784 118.413 79.6354 117.765 80.4953L117.574 80.9596C118.217 80.1357 118.863 79.3137 119.513 78.4937L119.724 77.9205ZM121.312 73.7249C120.771 74.4484 120.228 75.1718 119.691 75.8973L119.606 76.0936C120.128 75.4137 120.654 74.7347 121.182 74.0567L121.312 73.7249ZM188.084 367.862C188.428 368.853 188.769 369.843 189.099 370.846L195.335 368.146C194.957 367.231 194.565 366.326 194.171 365.424L188.084 367.862ZM186.604 363.747C186.968 364.72 187.324 365.694 187.672 366.676L193.668 364.273C193.271 363.378 192.862 362.492 192.45 361.607L186.604 363.747ZM185.05 359.695C185.427 360.651 185.799 361.61 186.166 362.572L191.914 360.469C191.499 359.593 191.074 358.722 190.64 357.856L185.05 359.695ZM183.424 355.696C183.816 356.638 184.203 357.581 184.584 358.526L190.076 356.721C189.644 355.864 189.205 355.011 188.759 354.161L183.679 355.622L183.424 355.696ZM181.73 351.743C182.136 352.669 182.535 353.597 182.928 354.527L183.377 354.397L188.154 353.023C187.708 352.184 187.256 351.347 186.797 350.512L184.8 350.997L181.73 351.743ZM179.982 347.832C180.398 348.745 180.808 349.658 181.212 350.572L184.544 349.761L186.163 349.368C185.704 348.545 185.24 347.723 184.771 346.901L179.982 347.832ZM178.183 343.96C178.608 344.858 179.026 345.756 179.438 346.654L184.104 345.746C183.635 344.938 183.162 344.13 182.685 343.324L178.183 343.96ZM176.341 340.119C176.771 341.003 177.193 341.886 177.615 342.765L181.984 342.148C181.511 341.355 181.032 340.564 180.546 339.775L176.341 340.119ZM174.461 336.304C174.892 337.171 175.319 338.035 175.742 338.896L179.797 338.564C179.319 337.791 178.839 337.016 178.351 336.241L174.461 336.304ZM172.557 332.516C172.987 333.362 173.412 334.206 173.832 335.047L177.564 334.987C177.087 334.232 176.606 333.476 176.122 332.72L172.557 332.516ZM170.631 328.755L171.891 331.209L175.276 331.405L173.854 329.207L170.631 328.755ZM168.696 325.024L169.919 327.38L172.937 327.805L171.555 325.696L168.696 325.024ZM166.764 321.326L167.926 323.544L170.547 324.161L169.23 322.167L166.764 321.326ZM164.852 317.694L165.914 319.713L168.098 320.462L166.891 318.634L164.852 317.694ZM162.987 314.147L163.883 315.849L163.889 315.862L165.565 316.647L164.532 315.089L162.987 314.147ZM161.216 310.774L161.859 312.001L162.919 312.653L162.17 311.521L161.216 310.774ZM159.64 307.766L159.826 308.122L160.046 308.296L159.807 307.931L159.64 307.766ZM115.312 104.579C114.051 105.994 112.798 107.413 111.555 108.833C111.431 109.361 111.309 109.891 111.191 110.421C112.446 109.013 113.708 107.608 114.979 106.206C115.085 105.667 115.198 105.126 115.312 104.579ZM116.177 100.6C114.963 101.98 113.758 103.363 112.563 104.748C112.43 105.271 112.298 105.792 112.169 106.311C113.382 104.936 114.601 103.564 115.824 102.195C115.941 101.666 116.056 101.134 116.177 100.604V100.6ZM117.122 96.5815C115.958 97.9244 114.801 99.2695 113.653 100.617L113.246 102.122C114.408 100.787 115.577 99.4541 116.753 98.1236L117.122 96.5815ZM118.146 92.5322C117.034 93.8319 115.93 95.1345 114.833 96.4401L114.422 97.8625C115.529 96.5759 116.642 95.2906 117.761 94.0066C117.885 93.5178 118.017 93.0279 118.146 92.5361V92.5322ZM119.238 88.4574C118.186 89.7074 117.14 90.9596 116.102 92.2141L115.685 93.5688C116.736 92.33 117.792 91.0934 118.854 89.8592L119.238 88.4574ZM120.421 84.3198C119.433 85.5121 118.452 86.7065 117.477 87.9028L117.061 89.1789C118.046 88.0009 119.038 86.823 120.035 85.645L120.421 84.3198ZM121.689 80.1645C120.769 81.2927 119.856 82.4219 118.948 83.5521L118.554 84.6957C119.465 83.5878 120.383 82.4815 121.308 81.3768C121.437 80.9753 121.567 80.5728 121.693 80.1684L121.689 80.1645ZM123.027 75.9964C122.187 77.0435 121.352 78.0945 120.521 79.1495C120.4 79.4803 120.276 79.8091 120.157 80.1399C120.994 79.1059 121.837 78.0742 122.686 77.0448L123.027 75.9964ZM124.451 71.8048C123.695 72.7675 122.942 73.7324 122.192 74.6997L121.895 75.4801C122.64 74.5462 123.39 73.6136 124.145 72.6824L124.451 71.8048ZM125.961 67.5837C125.302 68.4397 124.645 69.2974 123.991 70.1566L123.753 70.7456C124.401 69.9197 125.053 69.0958 125.71 68.2738L125.961 67.5837ZM127.53 63.3931C126.984 64.1215 126.438 64.8489 125.892 65.5782L125.784 65.8286C126.316 65.1401 126.85 64.453 127.387 63.7671L127.53 63.3931ZM129.19 59.1799L128.69 59.8572L129.167 59.2349L129.19 59.1799ZM114.511 108.543C113.209 109.986 111.915 111.433 110.63 112.884C105.209 137.658 103.678 163.497 107.773 189.705C110.52 207.293 115.802 225.049 124.135 242.76C131.84 259.135 139.526 273.039 146.95 285.353C139.818 270.695 132.393 254.06 125.002 234.242C119.188 218.649 115.238 203.287 112.887 188.237C108.548 160.44 109.662 133.718 114.515 108.546L114.511 108.543ZM150.551 293.634L150.407 293.27C141.619 279.182 132.374 263.049 123.098 243.335C114.706 225.502 109.389 207.622 106.621 189.913C102.616 164.257 103.956 138.959 109.048 114.665C107.76 116.123 106.481 117.584 105.21 119.046C99.3285 143.623 97.4769 168.816 101.368 193.713C104.44 213.383 111.097 232.881 122.177 251.75C131.832 268.188 141.402 281.757 150.556 293.637L150.551 293.634ZM152.736 299.082L152.169 297.672C142.237 284.997 131.768 270.431 121.198 252.429C110.028 233.405 103.318 213.752 100.221 193.923C96.4173 169.583 98.0595 144.98 103.568 120.943C102.313 122.394 101.066 123.847 99.8273 125.301C93.3104 150.191 91.0655 175.302 94.8452 199.494C98.1878 220.885 106.241 241.565 120.218 260.743C131.325 275.985 142.292 288.342 152.737 299.085L152.736 299.082ZM154.749 304.047L153.936 302.046C142.864 290.794 131.171 277.806 119.304 261.524C105.194 242.166 97.0672 221.292 93.6936 199.7C90.005 176.087 92.0068 151.618 98.0959 127.336C96.8931 128.756 95.6984 130.177 94.512 131.6C87.1903 157.227 84.4748 182.715 88.2116 206.634C91.7846 229.5 101.259 250.949 118.252 269.731C130.762 283.57 143.065 294.556 154.75 304.049L154.749 304.047ZM156.673 308.751L155.709 306.395C143.493 296.568 130.574 285.165 117.416 270.617C100.247 251.635 90.6732 229.956 87.061 206.841C83.4197 183.52 85.8494 158.74 92.674 133.806C91.5398 135.175 90.4119 136.544 89.2904 137.915C81.0065 164.634 77.7421 190.864 81.4872 214.838C85.265 239.018 96.1806 260.919 116.271 278.724C130.161 291.04 143.769 300.579 156.674 308.754L156.673 308.751ZM158.546 313.307L157.484 310.726C144.129 302.33 129.993 292.518 115.535 279.706C95.2056 261.688 84.1598 239.522 80.3356 215.046C76.6879 191.701 79.6201 166.258 87.3314 140.322C86.276 141.623 85.2267 142.924 84.1835 144.225C83.1706 147.254 82.2217 150.272 81.3369 153.28C74.028 178.181 71.2979 202.231 74.6816 223.888C78.6469 249.268 91.0255 271.379 114.29 287.727C129.539 298.447 144.441 306.49 158.547 313.31L158.546 313.307ZM160.382 317.767L159.342 315.241L159.257 315.035C144.764 308.074 129.399 299.856 113.656 288.791C90.0905 272.233 77.55 249.826 73.53 224.101C70.1154 202.241 72.8619 177.99 80.2273 152.903C80.8153 150.898 81.4334 148.888 82.0816 146.873C81.1209 148.081 80.1654 149.292 79.215 150.505C78.718 151.888 78.2343 153.268 77.7639 154.647C65.0887 191.823 62.1584 226.949 73.6347 254.79C80.6952 271.919 93.2238 286.31 112.307 296.743C128.91 305.816 145.092 312.333 160.383 317.77L160.382 317.767ZM162.184 322.159L161.022 319.324C145.39 313.799 128.811 307.179 111.782 297.869C92.4437 287.297 79.7384 272.693 72.5697 255.299C60.9576 227.126 63.8898 191.675 76.6661 154.204L76.9328 153.429C76.0771 154.531 75.2214 155.632 74.3757 156.734C71.8614 163.312 69.6463 169.815 67.7304 176.242C57.6513 210.108 56.3195 241.325 67.1669 265.656C74.911 283.025 88.8789 296.905 110.324 305.753C128.263 313.157 145.713 318.124 162.185 322.162L162.184 322.159ZM163.958 326.507L162.775 323.602C146.014 319.516 128.223 314.494 109.91 306.939C88.1634 297.966 73.987 283.87 66.1137 266.206C55.1252 241.558 56.4488 210.018 66.6171 175.854C68.1749 170.619 69.9349 165.329 71.8969 159.986C71.1587 160.957 70.4177 161.927 69.6876 162.899C65.1597 174.078 61.4483 185.052 58.6582 195.68C50.4471 226.968 50.2195 255.245 60.6372 276.925C69.0686 294.469 84.4966 307.722 108.338 314.779C127.6 320.483 146.311 323.878 163.959 326.51L163.958 326.507ZM165.703 330.826C165.308 329.844 164.911 328.858 164.512 327.867C146.629 325.217 127.633 321.799 108.033 315.996C83.8531 308.839 68.1883 295.363 59.604 277.508C49.0361 255.519 49.2437 226.92 57.5339 195.332C59.9918 185.971 63.1597 176.344 66.9676 166.547C66.3576 167.367 65.7441 168.187 65.1405 169.007C58.5999 184.333 53.5486 199.258 50.2295 213.427C43.3566 242.772 43.9156 268.856 54.0692 288.523C63.1943 306.193 80.0971 318.718 106.353 323.805C126.952 327.799 146.905 329.624 165.708 330.831L165.703 330.826ZM167.416 335.127C167.022 334.131 166.626 333.131 166.227 332.128C147.209 330.918 127.008 329.094 106.153 325.053C79.519 319.892 62.3504 307.143 53.0542 289.141C42.7422 269.17 42.1541 242.767 49.0998 213.115C52.0993 200.31 56.5062 186.894 62.1411 173.124C61.6768 173.763 61.2071 174.4 60.7455 175.041C52.1758 194.196 45.8536 212.714 42.2115 229.924C36.3044 257.835 37.445 282.287 47.4676 300.406C57.2909 318.165 75.6875 329.878 104.383 332.843C126.274 335.109 147.462 335.35 167.417 335.132L167.416 335.127ZM169.091 339.422C168.701 338.413 168.311 337.403 167.914 336.388C147.787 336.616 126.394 336.388 104.272 334.101C75.1677 331.093 56.4807 319.159 46.4672 301.054C36.278 282.635 35.1 257.861 41.0726 229.64C44.4017 213.913 49.9546 197.104 57.4056 179.72C57.1033 180.146 56.7947 180.572 56.4952 180.996C45.86 203.761 38.2889 225.627 34.4455 245.511C29.2476 272.381 30.8406 295.614 40.8305 312.518C51.3583 330.334 71.2552 341.169 102.412 341.88C125.579 342.416 147.993 341.071 169.092 339.427L169.091 339.422ZM170.729 343.722C170.346 342.701 169.963 341.681 169.57 340.656C148.344 342.315 125.772 343.68 102.389 343.147C70.8009 342.425 50.5873 331.378 39.8501 313.206C29.6836 296.002 28.0451 272.449 33.3058 245.257C36.8369 227.008 43.4786 207.109 52.7329 186.389L52.3797 186.895C39.6398 213.114 30.8288 238.163 26.8425 260.456C22.1708 286.586 24.1298 308.908 34.1651 324.846C45.4021 342.692 66.8164 352.585 100.448 350.926C124.899 349.724 148.512 346.797 170.727 343.727L170.729 343.722ZM172.318 348.03C171.944 346.999 171.57 345.969 171.185 344.934C148.853 348.024 125.105 350.975 100.497 352.188C66.415 353.87 44.6666 343.769 33.2002 325.558C22.9764 309.322 20.9637 286.675 25.6955 260.215C29.2458 240.342 36.6102 218.299 47.1544 195.202C32.9353 223.874 23.3041 251.114 19.3342 274.928C15.0557 300.549 17.3315 322.187 27.4716 337.341C39.4231 355.197 62.3641 364.1 98.4828 359.97C124.197 357.034 148.995 352.529 172.316 348.035L172.318 348.03ZM173.854 352.354C173.49 351.313 173.126 350.27 172.756 349.229C149.334 353.744 124.426 358.277 98.6021 361.229C62.0172 365.413 38.724 356.311 26.5248 338.085C16.1854 322.637 13.8559 300.666 18.1881 274.704C21.6182 254.145 29.2285 231.066 40.3426 206.738C25.5663 236.559 15.7148 264.728 11.8933 289.064C7.92249 314.355 10.4622 335.487 20.7552 349.988C33.4259 367.838 57.9053 375.707 96.5229 369.015C123.454 364.354 149.427 358.275 173.853 352.359L173.854 352.354ZM175.336 356.707C174.986 355.654 174.635 354.601 174.273 353.55C149.792 359.48 123.75 365.58 96.7058 370.266C57.6113 377.04 32.766 368.984 19.8322 350.764C9.32529 335.961 6.71628 314.492 10.7426 288.853C14.0653 267.694 21.9104 243.673 33.5598 218.208C18.25 249.116 8.18192 278.153 4.49057 302.969C0.633545 328.871 3.72409 350.151 15.0503 364.101C28.726 380.942 54.4671 387.174 94.5657 378.074C122.717 371.684 149.834 364.037 175.334 356.712L175.336 356.707ZM180.814 370.778C181.108 371.868 181.401 372.958 181.68 374.058L188.002 371.316C187.669 370.304 187.324 369.303 186.977 368.303L180.814 370.778ZM179.569 366.322C179.88 367.397 180.188 368.474 180.486 369.557L186.566 367.115C186.215 366.122 185.852 365.136 185.486 364.153L180.284 366.06L179.569 366.322ZM178.252 361.924C178.58 362.985 178.902 364.049 179.217 365.117L179.914 364.861L185.048 362.978C184.678 362.002 184.301 361.03 183.917 360.061L182.177 360.634L178.252 361.924ZM176.869 357.576C177.212 358.623 177.548 359.673 177.877 360.727L181.839 359.424L183.45 358.894C183.064 357.933 182.672 356.976 182.274 356.022L176.869 357.576ZM175.426 353.271C175.782 354.307 176.131 355.343 176.473 356.38L181.78 354.854C181.379 353.909 180.973 352.966 180.563 352.024L175.426 353.271ZM173.927 349.008C174.291 350.033 174.651 351.057 175.007 352.081L180.039 350.858C179.626 349.928 179.208 348.997 178.786 348.067L173.927 349.008ZM172.38 344.774C172.756 345.787 173.123 346.798 173.488 347.809L178.236 346.89C177.812 345.971 177.387 345.053 176.952 344.135C175.436 344.348 173.913 344.56 172.382 344.773L172.38 344.774ZM170.797 340.566C171.179 341.567 171.552 342.564 171.926 343.562L176.38 342.939C175.947 342.034 175.517 341.129 175.074 340.223L170.797 340.566ZM169.178 336.379C169.564 337.368 169.942 338.349 170.321 339.332L174.47 339.001C174.031 338.11 173.595 337.219 173.147 336.325L169.178 336.379ZM167.529 332.215C167.916 333.188 168.295 334.153 168.676 335.119L172.509 335.068C172.068 334.192 171.629 333.317 171.18 332.437C169.971 332.365 168.754 332.292 167.529 332.215ZM165.864 328.071C166.249 329.025 166.626 329.968 167.006 330.918C168.179 330.993 169.346 331.065 170.509 331.134C170.07 330.276 169.633 329.42 169.186 328.556L165.864 328.071ZM164.188 323.949L165.31 326.71C166.366 326.865 167.419 327.018 168.468 327.168C168.035 326.335 167.605 325.5 167.165 324.661C166.18 324.427 165.189 324.189 164.192 323.949H164.188ZM162.514 319.853L163.606 322.504L166.398 323.176L165.132 320.758L162.514 319.853ZM160.847 315.799L161.876 318.299L164.275 319.14L163.073 316.853L160.847 315.799ZM159.208 311.806L160.143 314.077L162.11 315.014L161.011 312.924L159.208 311.806ZM157.606 307.919L158.394 309.839L159.872 310.763L158.934 308.974L157.606 307.919ZM156.099 304.235L156.65 305.585L157.538 306.297L156.863 305.001L156.099 304.235ZM154.771 300.972L154.906 301.304L154.997 301.402L154.793 301.01L154.771 300.972ZM120.597 98.7048C119.353 100.074 118.116 101.446 116.886 102.823L116.522 104.508C117.759 103.15 119.003 101.793 120.254 100.439C120.366 99.8582 120.485 99.2839 120.599 98.7048H120.597ZM121.383 94.7399C120.184 96.0762 118.993 97.4142 117.81 98.7538C117.679 99.3104 117.547 99.866 117.419 100.423C118.623 99.0837 119.833 97.7473 121.05 96.4136C121.165 95.858 121.267 95.2945 121.385 94.7399H121.383ZM122.283 90.6926C121.118 92.008 119.961 93.3257 118.811 94.6457C118.676 95.1823 118.542 95.7199 118.411 96.2585C119.57 94.9549 120.735 93.6535 121.906 92.3545C122.03 91.7989 122.159 91.2472 122.286 90.6926H122.283ZM123.2 86.6826C122.094 87.9476 120.995 89.2165 119.902 90.4894C119.763 91.0051 119.625 91.5214 119.487 92.0384C120.598 90.7728 121.715 89.5094 122.838 88.2483C122.963 87.728 123.076 87.2038 123.202 86.6826H123.2ZM124.252 82.5724C123.187 83.8087 122.129 85.0475 121.078 86.289C120.934 86.7886 120.788 87.2892 120.646 87.7899C121.711 86.5609 122.782 85.3335 123.859 84.1077L124.252 82.5724ZM125.344 78.4495C124.338 79.6354 123.339 80.8235 122.346 82.0139C122.2 82.488 122.059 82.9661 121.917 83.4422C122.913 82.2747 123.914 81.1095 124.921 79.9465C125.06 79.4489 125.207 78.958 125.345 78.4525L125.344 78.4495ZM126.528 74.2992C125.585 75.4281 124.649 76.5589 123.719 77.6917C123.573 78.1393 123.426 78.584 123.283 79.0317C124.229 77.908 125.182 76.7857 126.139 75.6646C126.268 75.2131 126.394 74.7556 126.527 74.3021L126.528 74.2992ZM127.791 70.1233C126.913 71.1933 126.04 72.2652 125.172 73.3391C125.035 73.7377 124.899 74.1372 124.766 74.5357C125.638 73.4886 126.514 72.4416 127.394 71.3945C127.523 70.9675 127.657 70.5473 127.791 70.1233ZM129.089 65.9807C128.3 66.9624 127.515 67.944 126.734 68.9257C126.606 69.2781 126.476 69.6285 126.349 69.9809C127.144 69.0071 127.944 68.0353 128.749 67.0654C128.864 66.7052 128.971 66.339 129.089 65.9807ZM130.541 61.7155C129.823 62.6238 129.11 63.5325 128.399 64.4415L128.062 65.3368C128.774 64.4513 129.49 63.5678 130.21 62.6863L130.541 61.7155ZM132.018 57.517C131.401 58.3141 130.786 59.1125 130.174 59.9122L129.917 60.5513C130.524 59.7849 131.133 59.0196 131.745 58.2552C131.834 58.0068 131.929 57.7634 132.018 57.517ZM133.566 53.3146C133.059 53.9828 132.555 54.6519 132.052 55.3221L131.899 55.6902C132.395 55.0521 132.893 54.4153 133.393 53.7799L133.566 53.3146ZM135.223 49.0808L134.063 50.6592C134.428 50.1802 134.798 49.7041 135.166 49.2261L135.223 49.0808ZM119.843 102.69C118.565 104.08 117.295 105.473 116.032 106.869C110.886 132.463 109.611 159.689 114.039 188.032C116.376 202.987 120.302 218.258 126.086 233.769C131.94 249.463 137.813 263.157 143.545 275.451C138.083 260.755 132.461 244.274 126.917 225.153C113.976 180.516 113.285 139.454 119.847 102.69H119.843ZM360 496.218C345.89 570.575 315.234 675.332 264.162 821H262.915C315.404 671.354 346.367 564.969 360 490.431V496.218ZM360 543.426C343.028 613.438 314.904 704.226 273.677 821H272.427C314.618 701.548 343.117 609.327 360 538.778V543.426ZM360 582.632C342.503 646.635 317.25 725.166 283.188 821H281.937C316.784 723.001 342.433 643.114 360 578.4V582.632ZM360 617.837C343.124 674.99 320.882 742.215 292.697 821H291.448C320.306 740.363 342.964 671.832 360.002 613.874L360 617.837ZM360 650.52C344.464 700.283 325.292 756.864 302.202 821H300.949C324.661 755.169 344.232 697.34 360 646.661V650.52ZM333.425 -57.9997C252.917 -20.9025 180.073 37.4542 121.324 101.091C114.442 138.141 114.942 179.623 128.035 224.778C135.307 249.855 142.706 270.383 149.717 288.298C151.07 291.039 152.41 293.714 153.738 296.322C155.297 298.783 156.84 301.187 158.367 303.531C160.127 305.709 161.864 307.836 163.579 309.912C165.537 311.82 167.469 313.688 169.377 315.514C171.473 317.115 173.54 318.686 175.579 320.226L175.705 320.324L177.878 321.611C179.456 322.545 181.014 323.469 182.553 324.384C185.046 325.513 187.498 326.631 189.911 327.739C192.52 328.616 195.088 329.493 197.615 330.371C200.402 331.033 203.139 331.706 205.827 332.392C208.726 332.843 211.573 333.314 214.367 333.806C217.358 334.061 220.293 334.346 223.172 334.662C226.247 334.739 229.264 334.855 232.222 335.012C235.396 334.928 238.507 334.892 241.557 334.905C244.784 334.675 247.947 334.501 251.045 334.383C254.322 334.024 257.532 333.727 260.673 333.493C264.003 333.015 267.266 332.606 270.461 332.266C273.832 331.684 277.133 331.175 280.365 330.74C283.748 330.068 287.061 329.474 290.303 328.957C293.72 328.2 297.067 327.525 300.344 326.932C303.803 326.095 307.187 325.346 310.494 324.683C329.235 319.815 345.862 317.494 359.996 318.695V319.957C350.685 319.151 340.259 319.898 328.837 321.915C340.453 320.813 350.889 321.25 360.004 323.598V324.898C348.279 321.816 334.287 321.971 318.353 324.538C333.172 323.374 346.073 324.659 356.737 329.232C357.853 329.71 358.938 330.236 360.004 330.788V332.206C358.8 331.565 357.577 330.956 356.308 330.412C343.381 324.867 327.062 324.227 307.952 326.97C322.303 326.111 334.851 327.5 345.294 331.947C350.803 334.293 355.716 337.498 360.004 341.658V343.354C355.634 338.927 350.575 335.558 344.869 333.128C332.684 327.939 317.547 326.977 299.963 328.921L299.217 329.144C312.379 328.787 323.978 330.334 333.771 334.476C345.071 339.254 353.944 347.477 360.004 360.195V362.943C354.043 349.298 345.019 340.593 333.351 335.654C322.528 331.076 309.423 329.717 294.396 330.618C293.763 330.814 293.127 331.015 292.49 331.221C303.619 331.483 313.563 333.175 322.149 336.781C380.318 361.207 375.779 473.033 254.648 820.998H253.402C374.383 473.609 379.231 362.105 321.729 337.961C312.319 334.01 301.227 332.39 288.693 332.449C287.79 332.745 286.882 333.046 285.97 333.352C294.977 334.085 303.152 335.814 310.39 338.829C368.958 363.239 365.81 471.744 245.121 820.998H243.878C364.411 472.326 367.863 364.142 309.967 340.01C302.039 336.706 292.951 334.972 282.851 334.405C281.738 334.786 280.62 335.172 279.497 335.564C286.35 336.569 292.686 338.182 298.447 340.565C357.579 365.02 356.016 469.848 235.6 821H234.353C354.615 470.443 356.484 365.926 298.036 341.753C291.676 339.123 284.597 337.44 276.876 336.489C275.602 336.942 274.319 337.4 273.029 337.863C277.708 338.89 282.126 340.219 286.261 341.918C346.175 366.499 346.448 467.175 226.071 820.996H224.828C345.048 467.787 345.081 367.409 285.848 343.106C281.186 341.193 276.15 339.75 270.775 338.689C269.362 339.206 267.941 339.731 266.512 340.265C268.991 341.011 271.388 341.853 273.704 342.791C334.72 367.617 337.185 463.483 216.536 821.001H215.295C335.786 464.092 333.629 368.523 273.298 343.976C270.432 342.818 267.51 341.825 264.547 341.001C263.019 341.576 261.481 342.16 259.935 342.753L260.591 343.013C323.176 368.26 328.361 458.32 207.002 821H205.762C326.958 458.943 322.082 369.168 260.184 344.198C259.525 343.936 258.86 343.678 258.189 343.423C256.558 344.052 254.92 344.69 253.273 345.338C311.905 374.554 315.835 464.155 197.467 821H196.226C315.176 462.528 310.732 374.334 251.693 345.959C249.986 346.632 248.268 347.315 246.541 348.007C300.656 381.463 302.906 471.203 187.923 821H186.684C302.136 469.899 299.482 381.361 245.088 348.59C243.314 349.302 241.531 350.024 239.737 350.755C289.42 388.309 290.048 478.079 178.376 821H177.138C289.094 477.3 288.173 388.431 238.315 351.334C236.494 352.08 234.661 352.832 232.815 353.592C278.125 395.227 277.159 485.065 168.826 820.997H167.587C276.143 484.475 276.898 395.383 231.494 354.143C229.608 354.924 227.711 355.715 225.804 356.514C266.818 402.13 264.301 491.99 159.269 821H158.034C263.232 491.561 265.607 402.31 224.563 357.033C222.621 357.846 220.668 358.669 218.705 359.501C255.499 409.009 251.476 498.843 149.703 821H148.47C250.357 498.564 254.297 409.215 217.523 360.002C215.533 360.846 213.533 361.697 211.522 362.555C244.171 415.863 238.678 505.635 140.138 821.002H138.909C237.519 505.492 242.972 416.094 210.379 363.041C208.349 363.909 206.307 364.784 204.254 365.666C232.838 422.689 225.912 512.365 130.566 821.002H129.336C224.71 512.347 231.631 422.94 203.138 366.146L196.906 368.831C221.485 429.483 213.177 519.022 120.986 821.002H119.758C211.939 519.114 220.279 429.752 195.802 369.306L189.479 372.042C210.13 436.242 200.475 525.6 111.4 821H110.179C199.208 525.796 208.921 436.532 188.383 372.519L181.981 375.296C198.771 442.981 187.807 532.114 101.815 821H100.587C186.516 532.388 197.551 443.273 180.878 375.775L175.295 378.202C147.348 390.343 117.797 403.184 87.1703 415.455C47.2191 431.464 18.6233 433.705 0.00177002 425.606V424.243C18.3265 432.455 46.773 430.292 86.7679 414.265C117.438 401.974 146.953 389.151 174.86 377.026L180.578 374.542C180.298 373.43 180.002 372.329 179.707 371.227L177.994 371.915C149.922 383.194 120.124 395.166 89.0828 406.416C46.4071 421.884 17.3351 421.264 0.00177002 409.037V407.518C16.9519 419.979 45.8718 420.744 88.7132 405.217C119.646 394.005 149.483 382.018 177.59 370.724L179.381 370.004C179.081 368.909 178.769 367.821 178.455 366.734C150.853 376.856 121.496 387.59 90.9908 397.381C47.596 411.31 19.0083 408.207 3.02951 393.132C1.96967 392.132 0.959045 391.073 0.00177002 389.959V388.067C1.17642 389.529 2.44296 390.901 3.79236 392.175C19.4726 406.968 47.6934 409.959 90.6622 396.166C121.178 386.371 150.518 375.643 178.105 365.528C177.787 364.447 177.462 363.37 177.128 362.297C150.527 371.034 122.236 380.25 92.8998 388.346C50.9851 399.915 23.6491 395.209 8.65982 379.145C5.07501 375.304 2.19656 370.817 0.00177002 365.752V362.589C2.24664 368.608 5.38907 373.862 9.47729 378.243C24.1744 393.994 51.1407 398.563 92.6122 387.116C121.998 379.005 150.223 369.818 176.755 361.103C176.421 360.037 176.08 358.973 175.732 357.91C150.191 365.248 123.025 372.908 94.8051 379.31C54.244 388.516 28.1306 382.12 14.1745 364.935C2.59891 350.681 -0.572632 329.045 3.34174 302.768C6.57065 281.083 14.6297 256.215 26.7633 229.719C14.0817 255.331 4.96393 279.608 0.00543213 301.25V296.235C4.29666 279.199 11.0449 260.66 19.966 241.205C11.7995 257.703 5.095 273.627 0.00088501 288.641V285.031C3.64215 274.666 8.02805 263.891 13.1095 252.811C8.20587 262.725 3.83633 272.402 0.00088501 281.842V278.732C1.96353 274.003 4.06091 269.209 6.293 264.348C4.09125 268.803 1.99387 273.213 0.00088501 277.576V274.743C3.19061 267.857 6.63861 260.86 10.3448 253.751C16.159 242.603 22.605 231.213 29.6272 219.678C31.5649 216.349 33.558 213.004 35.6062 209.645C37.6568 206.111 39.7697 202.559 41.9447 198.989C44.0894 195.291 46.3 191.576 48.5764 187.846C50.5536 184.443 52.5866 181.028 54.6755 177.6C56.7298 174.057 58.8457 170.5 61.0232 166.932C63.0374 163.455 65.1114 159.968 67.2452 156.471C69.2831 152.946 71.3841 149.413 73.5482 145.869C75.6189 142.294 77.7548 138.711 79.956 135.118C81.8919 131.77 83.8852 128.417 85.9359 125.061C87.3238 122.653 88.7403 120.244 90.1852 117.834C90.8989 116.642 91.6263 115.451 92.3545 114.26C94.39 110.726 96.4883 107.195 98.6494 103.667C100.647 100.202 102.703 96.7408 104.819 93.2841C106.841 89.7692 108.925 86.2618 111.069 82.7619C112.216 80.7652 113.384 78.7715 114.572 76.7807C115.441 75.3233 116.321 73.8682 117.212 72.4154C119.205 68.9417 121.255 65.4856 123.363 62.0473C125.373 58.5363 127.441 55.0501 129.567 51.5889C131.53 48.1564 133.546 44.7534 135.616 41.3798C137.611 37.8832 139.657 34.4275 141.755 31.0127C143.705 27.59 145.7 24.2158 147.742 20.89C149.371 18.0216 151.029 15.1961 152.717 12.4135C168.948 -16.6343 188.018 -40.3734 204.483 -58.0027H206.137C196.088 -47.3136 185.018 -34.3117 174.198 -19.1797C184.592 -32.9039 195.817 -45.8722 207.798 -57.9997H209.494C195.442 -43.8644 182.428 -28.5739 170.571 -12.266C184.135 -29.967 198.287 -45.4229 211.465 -57.9997H213.227C197.853 -43.441 181.072 -24.886 165.425 -3.36152C181.72 -24.6475 199.166 -43.2515 215.532 -57.9997H217.359C198.683 -41.3177 178.523 -19.5282 160.236 5.59597C178.971 -18.896 199.511 -40.4431 219.055 -57.2134L219.976 -57.9988H221.866C221.171 -57.4098 220.475 -56.8172 219.777 -56.221C198.159 -37.668 175.317 -13.2604 155.066 14.5211C164.534 2.14304 174.578 -9.70792 185.161 -20.9859C198.233 -34.9086 211.652 -47.4078 224.772 -57.9939H226.723C213.25 -47.2282 199.436 -34.4109 185.98 -20.0779C173.127 -6.38222 161.074 8.16029 149.891 23.4658C174.327 -8.51711 202.462 -36.9739 229.892 -57.9997H231.895C203.341 -36.3427 173.917 -6.49689 148.65 27.0763C147.234 28.9591 145.831 30.853 144.44 32.758C171.629 -2.89132 203.645 -34.8772 235.299 -57.9997H237.366C203.239 -33.3556 168.577 1.76659 139.951 40.7643L139.93 40.8114C169.657 1.99727 205.263 -33.0955 240.964 -57.9997H243.113C206.904 -33.0385 170.687 2.5676 140.55 41.9894C139.701 43.1019 138.855 44.2177 138.013 45.3368L137.813 45.8099C169.628 5.04035 207.954 -31.9862 246.884 -57.9997H249.1C208.697 -31.3315 168.839 7.36391 136.174 49.9014L135.88 50.6377C169.796 7.96075 210.838 -30.9329 253.017 -57.9997H255.297C211.663 -30.3498 169.145 10.1184 134.407 54.4425C134.292 54.7468 134.181 55.055 134.067 55.3603C170.107 10.8065 213.878 -29.914 259.336 -57.9997H261.692C214.788 -29.3957 169.586 12.8159 132.754 58.9325L132.349 60.0732C170.533 13.6219 217.07 -28.9137 265.862 -57.9997H268.279C218.086 -28.4719 170.185 15.4409 131.236 63.3313C131.092 63.7544 130.945 64.1735 130.803 64.5986C171.14 16.3165 220.426 -27.9595 272.539 -57.9958H275.015C221.499 -27.559 170.875 18.0481 129.783 67.7133C129.638 68.1659 129.499 68.6233 129.355 69.0778C171.859 18.9689 223.907 -27.025 279.359 -57.9958H281.908C225.046 -26.6716 171.674 20.6014 128.422 72.0434C128.27 72.542 128.116 73.0378 127.967 73.5384C172.666 21.5889 227.507 -26.115 286.334 -57.9997H288.936C228.728 -25.8097 172.608 23.1026 127.183 76.2968C127.033 76.822 126.882 77.3462 126.734 77.8733C173.615 24.1362 231.23 -25.2315 293.413 -57.9997H296.098C232.503 -24.9469 173.601 25.6018 125.978 80.5787C125.836 81.1069 125.705 81.6428 125.569 82.1719C174.668 26.6434 235.074 -24.3608 300.639 -57.9997L303.357 -57.9997C236.402 -24.1174 174.737 28.0196 124.915 84.7311C124.773 85.2926 124.623 85.8472 124.484 86.4117C175.799 29.1112 239 -23.5107 307.939 -57.9997H310.743C240.401 -23.2957 175.945 30.4188 123.904 88.8726C123.771 89.438 123.647 90.0094 123.517 90.5777C177.057 31.5231 243.054 -22.6802 315.364 -57.9997H318.2C244.479 -22.4869 177.237 32.7943 122.97 92.9769C122.84 93.5659 122.707 94.1549 122.582 94.7438C178.361 33.934 247.169 -21.8566 322.872 -57.9997H325.779C248.675 -21.6937 178.633 35.1208 122.129 97.0291C122.011 97.6181 121.898 98.2071 121.779 98.7961C179.796 36.2654 251.396 -21.0625 330.462 -58.0007L333.425 -57.9997Z" fill="#D9E2ED"/>
</svg>
