<svg width="16" height="16" viewBox="0 0 16 16" fill="none" xmlns="http://www.w3.org/2000/svg">
<g id="vuesax/outline/calendar">
<g id="calendar">
<path id="Vector" d="M5.33337 3.83334C5.06004 3.83334 4.83337 3.60668 4.83337 3.33334V1.33334C4.83337 1.06001 5.06004 0.833344 5.33337 0.833344C5.60671 0.833344 5.83337 1.06001 5.83337 1.33334V3.33334C5.83337 3.60668 5.60671 3.83334 5.33337 3.83334Z" fill="#2E2F32"/>
<path id="Vector_2" d="M10.6666 3.83334C10.3933 3.83334 10.1666 3.60668 10.1666 3.33334V1.33334C10.1666 1.06001 10.3933 0.833344 10.6666 0.833344C10.94 0.833344 11.1666 1.06001 11.1666 1.33334V3.33334C11.1666 3.60668 10.94 3.83334 10.6666 3.83334Z" fill="#2E2F32"/>
<path id="Vector_3" d="M5.66667 9.66667C5.58 9.66667 5.49333 9.64668 5.41333 9.61335C5.32667 9.58001 5.26 9.53333 5.19333 9.47333C5.07333 9.34667 5 9.18 5 9C5 8.91334 5.02 8.82667 5.05333 8.74667C5.08667 8.66667 5.13333 8.59334 5.19333 8.52668C5.26 8.46668 5.32667 8.42 5.41333 8.38666C5.65333 8.28666 5.95333 8.34001 6.14 8.52668C6.26 8.65334 6.33333 8.82667 6.33333 9C6.33333 9.04 6.32667 9.08668 6.32 9.13335C6.31333 9.17335 6.3 9.21334 6.28 9.25334C6.26667 9.29334 6.24667 9.33334 6.22 9.37334C6.2 9.40667 6.16667 9.44 6.14 9.47333C6.01333 9.59333 5.84 9.66667 5.66667 9.66667Z" fill="#2E2F32"/>
<path id="Vector_4" d="M8.00004 9.66667C7.91337 9.66667 7.82671 9.64668 7.74671 9.61335C7.66004 9.58002 7.59337 9.53333 7.52671 9.47333C7.40671 9.34667 7.33337 9.18001 7.33337 9.00001C7.33337 8.91334 7.35338 8.82667 7.38671 8.74667C7.42004 8.66667 7.46671 8.59335 7.52671 8.52668C7.59337 8.46668 7.66004 8.42 7.74671 8.38666C7.98671 8.28 8.28671 8.34001 8.47337 8.52668C8.59337 8.65335 8.66671 8.82667 8.66671 9.00001C8.66671 9.04001 8.66004 9.08668 8.65337 9.13335C8.64671 9.17335 8.63337 9.21334 8.61337 9.25334C8.60004 9.29334 8.58004 9.33334 8.55338 9.37334C8.53338 9.40667 8.50004 9.44 8.47337 9.47333C8.34671 9.59333 8.17337 9.66667 8.00004 9.66667Z" fill="#2E2F32"/>
<path id="Vector_5" d="M10.3333 9.66667C10.2466 9.66667 10.16 9.64668 10.08 9.61335C9.99329 9.58002 9.92663 9.53333 9.85996 9.47333C9.83329 9.44 9.80662 9.40667 9.77996 9.37334C9.75329 9.33334 9.73329 9.29334 9.71996 9.25334C9.69996 9.21334 9.68663 9.17335 9.67996 9.13335C9.67329 9.08668 9.66663 9.04001 9.66663 9.00001C9.66663 8.82667 9.73996 8.65335 9.85996 8.52668C9.92663 8.46668 9.99329 8.42 10.08 8.38666C10.3266 8.28 10.62 8.34001 10.8066 8.52668C10.9266 8.65335 11 8.82667 11 9.00001C11 9.04001 10.9933 9.08668 10.9866 9.13335C10.98 9.17335 10.9666 9.21334 10.9466 9.25334C10.9333 9.29334 10.9133 9.33334 10.8866 9.37334C10.8666 9.40667 10.8333 9.44 10.8066 9.47333C10.68 9.59333 10.5066 9.66667 10.3333 9.66667Z" fill="#2E2F32"/>
<path id="Vector_6" d="M5.66667 12C5.58 12 5.49333 11.98 5.41333 11.9467C5.33333 11.9134 5.26 11.8667 5.19333 11.8067C5.07333 11.68 5 11.5067 5 11.3333C5 11.2467 5.02 11.16 5.05333 11.08C5.08667 10.9933 5.13333 10.92 5.19333 10.86C5.44 10.6134 5.89333 10.6134 6.14 10.86C6.26 10.9867 6.33333 11.16 6.33333 11.3333C6.33333 11.5067 6.26 11.68 6.14 11.8067C6.01333 11.9267 5.84 12 5.66667 12Z" fill="#2E2F32"/>
<path id="Vector_7" d="M8.00004 12C7.82671 12 7.65337 11.9267 7.52671 11.8067C7.40671 11.68 7.33337 11.5067 7.33337 11.3333C7.33337 11.2467 7.35338 11.16 7.38671 11.08C7.42004 10.9933 7.46671 10.92 7.52671 10.86C7.77337 10.6134 8.22671 10.6134 8.47337 10.86C8.53337 10.92 8.58004 10.9933 8.61337 11.08C8.64671 11.16 8.66671 11.2467 8.66671 11.3333C8.66671 11.5067 8.59337 11.68 8.47337 11.8067C8.34671 11.9267 8.17337 12 8.00004 12Z" fill="#2E2F32"/>
<path id="Vector_8" d="M10.3333 12C10.16 12 9.98663 11.9267 9.85996 11.8067C9.79996 11.7467 9.75329 11.6734 9.71996 11.5867C9.68663 11.5067 9.66663 11.42 9.66663 11.3334C9.66663 11.2467 9.68663 11.16 9.71996 11.08C9.75329 10.9934 9.79996 10.92 9.85996 10.86C10.0133 10.7067 10.2466 10.6334 10.46 10.68C10.5066 10.6867 10.5466 10.7 10.5866 10.72C10.6266 10.7334 10.6666 10.7534 10.7066 10.78C10.74 10.8 10.7733 10.8334 10.8066 10.86C10.9266 10.9867 11 11.16 11 11.3334C11 11.5067 10.9266 11.68 10.8066 11.8067C10.68 11.9267 10.5066 12 10.3333 12Z" fill="#2E2F32"/>
<path id="Vector_9" d="M13.6667 6.55997H2.33337C2.06004 6.55997 1.83337 6.3333 1.83337 6.05997C1.83337 5.78663 2.06004 5.55997 2.33337 5.55997H13.6667C13.94 5.55997 14.1667 5.78663 14.1667 6.05997C14.1667 6.3333 13.94 6.55997 13.6667 6.55997Z" fill="#2E2F32"/>
<path id="Vector_10" d="M10.6667 15.1667H5.33333C2.9 15.1667 1.5 13.7667 1.5 11.3333V5.66668C1.5 3.23334 2.9 1.83334 5.33333 1.83334H10.6667C13.1 1.83334 14.5 3.23334 14.5 5.66668V11.3333C14.5 13.7667 13.1 15.1667 10.6667 15.1667ZM5.33333 2.83334C3.42667 2.83334 2.5 3.76001 2.5 5.66668V11.3333C2.5 13.24 3.42667 14.1667 5.33333 14.1667H10.6667C12.5733 14.1667 13.5 13.24 13.5 11.3333V5.66668C13.5 3.76001 12.5733 2.83334 10.6667 2.83334H5.33333Z" fill="#2E2F32"/>
</g>
</g>
</svg>
