<svg width="16" height="16" viewBox="0 0 16 16" fill="none" xmlns="http://www.w3.org/2000/svg">
<g id="vuesax/outline/close-circle">
<g id="close-circle">
<path id="Vector" d="M5.88941 10.6693C5.74773 10.6693 5.60606 10.6171 5.49421 10.5053C5.27797 10.289 5.27797 9.93113 5.49421 9.71489L9.71462 5.49449C9.93086 5.27825 10.2888 5.27825 10.505 5.49449C10.7213 5.71073 10.7213 6.06864 10.505 6.28488L6.2846 10.5053C6.18021 10.6171 6.03108 10.6693 5.88941 10.6693Z" fill="#0451CD"/>
<path id="Vector_2" d="M10.1098 10.6693C9.96814 10.6693 9.82647 10.6171 9.71462 10.5053L5.49421 6.28488C5.27797 6.06864 5.27797 5.71073 5.49421 5.49449C5.71045 5.27825 6.06836 5.27825 6.2846 5.49449L10.505 9.71489C10.7213 9.93113 10.7213 10.289 10.505 10.5053C10.3932 10.6171 10.2515 10.6693 10.1098 10.6693Z" fill="#0451CD"/>
</g>
</g>
</svg>
