<svg width="24" height="24" viewBox="0 0 24 24" fill="none" xmlns="http://www.w3.org/2000/svg">
<g id="vuesax/outline/close-circle">
<g id="close-circle">
<path id="Vector" d="M8.83411 16.004C8.6216 16.004 8.40909 15.9257 8.24132 15.7579C7.91696 15.4336 7.91696 14.8967 8.24132 14.5724L14.5719 8.24174C14.8963 7.91738 15.4332 7.91738 15.7575 8.24174C16.0819 8.5661 16.0819 9.10297 15.7575 9.42733L9.42691 15.7579C9.27032 15.9257 9.04662 16.004 8.83411 16.004Z" fill="#AC1C1E"/>
<path id="Vector_2" d="M15.1647 16.004C14.9522 16.004 14.7397 15.9257 14.5719 15.7579L8.24132 9.42733C7.91696 9.10297 7.91696 8.5661 8.24132 8.24174C8.56568 7.91738 9.10255 7.91738 9.42691 8.24174L15.7575 14.5724C16.0819 14.8967 16.0819 15.4336 15.7575 15.7579C15.5897 15.9257 15.3772 16.004 15.1647 16.004Z" fill="#AC1C1E"/>
</g>
</g>
</svg>
