<svg width="20" height="20" viewBox="0 0 20 20" fill="none" xmlns="http://www.w3.org/2000/svg">
<g id="vuesax/bold/edit-2">
<g id="edit-2">
<path id="Vector" d="M17.5 18.3333H2.5C2.15833 18.3333 1.875 18.05 1.875 17.7083C1.875 17.3667 2.15833 17.0833 2.5 17.0833H17.5C17.8417 17.0833 18.125 17.3667 18.125 17.7083C18.125 18.05 17.8417 18.3333 17.5 18.3333Z" fill="#DADCE5"/>
<path id="Vector_2" d="M15.85 2.9C14.2333 1.28333 12.65 1.24167 10.9916 2.9L9.98331 3.90833C9.89998 3.99167 9.86665 4.125 9.89998 4.24167C10.5333 6.45 12.3 8.21667 14.5083 8.85C14.5416 8.85833 14.575 8.86667 14.6083 8.86667C14.7 8.86667 14.7833 8.83333 14.85 8.76667L15.85 7.75833C16.675 6.94167 17.075 6.15 17.075 5.35C17.0833 4.525 16.6833 3.725 15.85 2.9Z" fill="#DADCE5"/>
<path id="Vector_3" d="M13.0083 9.60833C12.7666 9.49167 12.5333 9.375 12.3083 9.24167C12.125 9.13333 11.95 9.01667 11.775 8.89167C11.6333 8.8 11.4666 8.66667 11.3083 8.53333C11.2916 8.525 11.2333 8.475 11.1666 8.40833C10.8916 8.175 10.5833 7.875 10.3083 7.54167C10.2833 7.525 10.2416 7.46667 10.1833 7.39167C10.1 7.29167 9.95831 7.125 9.83331 6.93333C9.73331 6.80833 9.61665 6.625 9.50831 6.44167C9.37498 6.21667 9.25831 5.99167 9.14165 5.75833C8.98868 5.43055 8.55847 5.33318 8.3027 5.58895L3.61665 10.275C3.50831 10.3833 3.40831 10.5917 3.38331 10.7333L2.93331 13.925C2.84998 14.4917 3.00831 15.025 3.35831 15.3833C3.65831 15.675 4.07498 15.8333 4.52498 15.8333C4.62498 15.8333 4.72498 15.825 4.82498 15.8083L8.02498 15.3583C8.17498 15.3333 8.38331 15.2333 8.48331 15.125L13.1771 10.4312C13.4278 10.1806 13.3336 9.74928 13.0083 9.60833Z" fill="#DADCE5"/>
</g>
</g>
</svg>
