<svg
                  xmlns="http://www.w3.org/2000/svg"
                  width="20"
                  height="20"
                  viewBox="0 0 20 20"
                  fill="none"
                >
                  <path
                    d="M9.99863 18.7486C15.8327 18.7486 18.7479 14.8314 18.7479 9.9993C18.7479 5.1672 15.8327 1.25 9.99863 1.25C4.1646 1.25 1.24933 5.1672 1.24933 9.9993C1.24933 14.8314 4.1646 18.7486 9.99863 18.7486Z"
                    fill="url(#paint0_radial_7840_3346)"
                  />
                  <path
                    d="M9.99863 18.7486C15.8327 18.7486 18.7479 14.8314 18.7479 9.9993C18.7479 5.1672 15.8327 1.25 9.99863 1.25C4.1646 1.25 1.24933 5.1672 1.24933 9.9993C1.24933 14.8314 4.1646 18.7486 9.99863 18.7486Z"
                    fill="url(#paint1_radial_7840_3346)"
                  />
                  <path
                    d="M9.99863 18.7486C15.8327 18.7486 18.7479 14.8314 18.7479 9.9993C18.7479 5.1672 15.8327 1.25 9.99863 1.25C4.1646 1.25 1.24933 5.1672 1.24933 9.9993C1.24933 14.8314 4.1646 18.7486 9.99863 18.7486Z"
                    fill="url(#paint2_radial_7840_3346)"
                  />
                  <path
                    d="M9.99863 18.7486C15.8327 18.7486 18.7479 14.8314 18.7479 9.9993C18.7479 5.1672 15.8327 1.25 9.99863 1.25C4.1646 1.25 1.24933 5.1672 1.24933 9.9993C1.24933 14.8314 4.1646 18.7486 9.99863 18.7486Z"
                    fill="url(#paint3_radial_7840_3346)"
                    fill-opacity="0.6"
                  />
                  <path
                    d="M9.99863 18.7486C15.8327 18.7486 18.7479 14.8314 18.7479 9.9993C18.7479 5.1672 15.8327 1.25 9.99863 1.25C4.1646 1.25 1.24933 5.1672 1.24933 9.9993C1.24933 14.8314 4.1646 18.7486 9.99863 18.7486Z"
                    fill="url(#paint4_radial_7840_3346)"
                  />
                  <path
                    d="M9.99863 18.7486C15.8327 18.7486 18.7479 14.8314 18.7479 9.9993C18.7479 5.1672 15.8327 1.25 9.99863 1.25C4.1646 1.25 1.24933 5.1672 1.24933 9.9993C1.24933 14.8314 4.1646 18.7486 9.99863 18.7486Z"
                    fill="url(#paint5_radial_7840_3346)"
                  />
                  <path
                    d="M9.99863 18.7486C15.8327 18.7486 18.7479 14.8314 18.7479 9.9993C18.7479 5.1672 15.8327 1.25 9.99863 1.25C4.1646 1.25 1.24933 5.1672 1.24933 9.9993C1.24933 14.8314 4.1646 18.7486 9.99863 18.7486Z"
                    fill="url(#paint6_radial_7840_3346)"
                  />
                  <path
                    d="M9.99863 18.7486C15.8327 18.7486 18.7479 14.8314 18.7479 9.9993C18.7479 5.1672 15.8327 1.25 9.99863 1.25C4.1646 1.25 1.24933 5.1672 1.24933 9.9993C1.24933 14.8314 4.1646 18.7486 9.99863 18.7486Z"
                    fill="url(#paint7_radial_7840_3346)"
                  />
                  <path
                    d="M7.07941 11.875C7.07941 11.875 7.95538 13.125 9.99933 13.125C12.0433 13.125 12.9193 11.875 12.9193 11.875"
                    stroke="url(#paint8_radial_7840_3346)"
                    stroke-width="2"
                    stroke-linecap="round"
                    stroke-linejoin="round"
                  />
                  <g filter="url(#filter0_f_7840_3346)">
                    <path
                      d="M2.21777 9.12252C2.35449 9.68892 2.7473 10.7649 4.00156 11.0754C4.18853 11.1217 4.3723 11.1554 4.55662 11.1808C4.56558 11.182 4.57457 11.1831 4.58357 11.1839C7.27421 11.4361 9.05297 9.16162 9.13983 6.6872C9.14703 6.48212 9.30491 6.30868 9.5101 6.30603C9.61938 6.30462 9.73269 6.30476 9.84932 6.3068C10.0537 6.31037 10.2105 6.4833 10.2177 6.68756C10.3056 9.16187 12.0827 11.4361 14.7738 11.1839C14.7829 11.1831 14.7918 11.182 14.8008 11.1808C14.9851 11.1554 15.1689 11.1217 15.3559 11.0754C17.0175 10.6641 18.0483 9.57197 18.5754 8.40056C18.4937 7.90499 18.3772 7.42489 18.2262 6.96412C18.0684 8.34125 17.331 8.51514 15.3559 9.00414C15.1933 9.04439 14.6378 9.43171 14.472 9.45455C12.597 9.63033 12.0697 8.40056 11.0069 6.43694L11.0068 6.41744C11.0068 6.40841 11.0068 6.39939 11.007 6.3904C11.0758 6.3994 11.145 6.40922 11.2144 6.41991L11.3854 5.31023C11.583 5.05558 11.8471 4.85521 12.1518 4.73531C12.2234 4.70438 12.3908 4.63409 12.9086 4.53755C13.4428 4.43796 14.8689 4.4391 15.7393 4.43979L15.9335 4.4399C16.3931 4.4399 16.8105 4.57334 17.0801 4.69536C16.8598 4.39215 16.6174 4.1058 16.3528 3.83828C16.2154 3.82336 16.0746 3.8149 15.9335 3.8149L15.7369 3.81479C15.3032 3.81444 14.7231 3.81398 14.1837 3.82623C13.661 3.83809 12.8868 3.87141 12.5613 3.93208C12.0233 4.0324 11.8063 4.11277 11.6806 4.16646C11.335 4.30416 11.0383 4.51643 10.804 4.78404C10.65 4.95997 10.4318 5.07744 10.1983 5.06709C9.82316 5.05048 9.47048 5.05238 9.15474 5.06517C8.92231 5.07458 8.70553 4.95757 8.55217 4.78266C8.31811 4.5157 8.02179 4.30393 7.67684 4.16646C7.55116 4.11277 7.33414 4.0324 6.79608 3.93208C6.47065 3.87141 5.69639 3.83809 5.17373 3.82623C4.63428 3.81398 4.05422 3.81444 3.62051 3.81479L3.61248 3.81479C3.40531 4.02236 3.21161 4.24139 3.03138 4.47094C3.15676 4.45148 3.2885 4.4399 3.4239 4.4399L3.61812 4.43979C4.48852 4.4391 5.91461 4.43796 6.4488 4.53755C6.96659 4.63409 7.13403 4.70438 7.20564 4.73531C7.49908 4.85079 7.75495 5.04093 7.94994 5.28231L8.16352 6.41641C8.21447 6.40681 8.27717 6.3966 8.3504 6.38641C8.35057 6.39673 8.35066 6.40707 8.35066 6.41744L8.35056 6.43694C8.46286 9.06878 6.45857 10.655 4.58357 10.4792C4.41782 10.4564 4.256 10.4266 4.09342 10.3864C2.65684 10.0307 2.76124 8.97539 2.35449 7.97017C2.28233 8.33936 2.25049 8.73651 2.21777 9.12252Z"
                      fill="url(#paint9_linear_7840_3346)"
                    />
                  </g>
                  <path
                    fill-rule="evenodd"
                    clip-rule="evenodd"
                    d="M7.99744 3.54146C8.26889 3.64963 8.51022 3.80382 8.7148 3.9947C8.98693 4.24862 9.33023 4.44125 9.70234 4.43309C9.88871 4.429 10.0856 4.4289 10.2906 4.43413C10.6645 4.44368 11.01 4.2503 11.2835 3.99502C11.4881 3.80399 11.7296 3.6497 12.0012 3.54146C12.1269 3.48777 12.3439 3.4074 12.8819 3.30708C13.2074 3.24641 13.9816 3.21309 14.5043 3.20123C15.0437 3.18898 15.6238 3.18944 16.0575 3.18979L16.2541 3.1899C16.9975 3.1899 17.7309 3.42477 18.0217 3.60005C18.676 3.93209 19.2815 4.56685 19.3249 5.65918C19.3267 5.67551 19.3278 5.69198 19.3284 5.70854C19.3799 7.38878 18.3365 9.79189 15.6765 10.4504C15.4895 10.4967 15.3057 10.5304 15.1214 10.5558C15.1124 10.557 15.1035 10.5581 15.0944 10.5589C12.4646 10.8054 10.7077 8.63926 10.547 6.23145C10.5271 5.9338 10.2703 5.68002 9.97201 5.6801C9.67251 5.68018 9.47169 5.93321 9.45179 6.23204C9.29153 8.63958 7.53312 10.8053 4.90417 10.5589C4.89517 10.5581 4.88618 10.557 4.87722 10.5558C4.6929 10.5304 4.50913 10.4967 4.32216 10.4504C1.66211 9.79189 0.618728 7.38878 0.67027 5.70854C0.670778 5.69198 0.671941 5.67551 0.673742 5.65918C0.717164 4.56685 1.32263 3.93209 1.97693 3.60005C2.26776 3.42477 3.00114 3.1899 3.7445 3.1899L3.94111 3.18979C4.37482 3.18944 4.95488 3.18898 5.49433 3.20123C6.01699 3.21309 6.79125 3.24641 7.11669 3.30708C7.65474 3.4074 7.87176 3.48777 7.99744 3.54146ZM1.55588 5.10313C1.71206 4.72274 2.00196 4.41188 2.39224 4.17666C2.61169 4.04439 3.14179 3.8149 3.7445 3.8149L3.93872 3.81479C4.80913 3.8141 6.23522 3.81296 6.76941 3.91255C7.28719 4.00909 7.45463 4.07938 7.52624 4.11031C7.81968 4.22579 8.07555 4.41593 8.27054 4.65731L8.48412 5.79141C8.53507 5.78181 8.59777 5.7716 8.671 5.76141C8.67117 5.77173 8.67126 5.78207 8.67126 5.79244L8.67116 5.81194C8.78346 8.44378 6.77917 10.03 4.90417 9.85424C4.73842 9.83141 4.5766 9.80162 4.41402 9.76137C2.43884 9.27237 1.6096 7.71625 1.45184 6.33912C1.42754 6.12705 1.41917 5.91921 1.42499 5.72018L1.42516 5.71459L1.42642 5.71463L1.42665 5.70854C1.43535 5.49068 1.47972 5.28864 1.55588 5.10313ZM11.3276 5.7654C11.3274 5.77439 11.3274 5.78341 11.3274 5.79244L11.3275 5.81194C11.2152 8.44378 13.2194 10.03 15.0944 9.85424C15.2602 9.83141 15.422 9.80162 15.5846 9.76137C17.5598 9.27237 18.389 7.71625 18.5468 6.33912C18.5711 6.12705 18.5795 5.91921 18.5736 5.72018L18.5735 5.71459L18.5722 5.71463L18.572 5.70854C18.5633 5.49068 18.5189 5.28864 18.4427 5.10313C18.2866 4.72274 17.9967 4.41188 17.6064 4.17666C17.3869 4.04439 16.8568 3.8149 16.2541 3.8149L16.0599 3.81479C15.1895 3.8141 13.7634 3.81296 13.2292 3.91255C12.7114 4.00909 12.544 4.07938 12.4724 4.11031C12.1677 4.23021 11.9036 4.43058 11.706 4.68523L11.535 5.79491C11.4656 5.78422 11.3964 5.7744 11.3276 5.7654Z"
                    fill="url(#paint10_radial_7840_3346)"
                  />
                  <path
                    fill-rule="evenodd"
                    clip-rule="evenodd"
                    d="M7.99744 3.54146C8.26889 3.64963 8.51022 3.80382 8.7148 3.9947C8.98693 4.24862 9.33023 4.44125 9.70234 4.43309C9.88871 4.429 10.0856 4.4289 10.2906 4.43413C10.6645 4.44368 11.01 4.2503 11.2835 3.99502C11.4881 3.80399 11.7296 3.6497 12.0012 3.54146C12.1269 3.48777 12.3439 3.4074 12.8819 3.30708C13.2074 3.24641 13.9816 3.21309 14.5043 3.20123C15.0437 3.18898 15.6238 3.18944 16.0575 3.18979L16.2541 3.1899C16.9975 3.1899 17.7309 3.42477 18.0217 3.60005C18.676 3.93209 19.2815 4.56685 19.3249 5.65918C19.3267 5.67551 19.3278 5.69198 19.3284 5.70854C19.3799 7.38878 18.3365 9.79189 15.6765 10.4504C15.4895 10.4967 15.3057 10.5304 15.1214 10.5558C15.1124 10.557 15.1035 10.5581 15.0944 10.5589C12.4646 10.8054 10.7077 8.63926 10.547 6.23145C10.5271 5.9338 10.2703 5.68002 9.97201 5.6801C9.67251 5.68018 9.47169 5.93321 9.45179 6.23204C9.29153 8.63958 7.53312 10.8053 4.90417 10.5589C4.89517 10.5581 4.88618 10.557 4.87722 10.5558C4.6929 10.5304 4.50913 10.4967 4.32216 10.4504C1.66211 9.79189 0.618728 7.38878 0.67027 5.70854C0.670778 5.69198 0.671941 5.67551 0.673742 5.65918C0.717164 4.56685 1.32263 3.93209 1.97693 3.60005C2.26776 3.42477 3.00114 3.1899 3.7445 3.1899L3.94111 3.18979C4.37482 3.18944 4.95488 3.18898 5.49433 3.20123C6.01699 3.21309 6.79125 3.24641 7.11669 3.30708C7.65474 3.4074 7.87176 3.48777 7.99744 3.54146ZM1.55588 5.10313C1.71206 4.72274 2.00196 4.41188 2.39224 4.17666C2.61169 4.04439 3.14179 3.8149 3.7445 3.8149L3.93872 3.81479C4.80913 3.8141 6.23522 3.81296 6.76941 3.91255C7.28719 4.00909 7.45463 4.07938 7.52624 4.11031C7.81968 4.22579 8.07555 4.41593 8.27054 4.65731L8.48412 5.79141C8.53507 5.78181 8.59777 5.7716 8.671 5.76141C8.67117 5.77173 8.67126 5.78207 8.67126 5.79244L8.67116 5.81194C8.78346 8.44378 6.77917 10.03 4.90417 9.85424C4.73842 9.83141 4.5766 9.80162 4.41402 9.76137C2.43884 9.27237 1.6096 7.71625 1.45184 6.33912C1.42754 6.12705 1.41917 5.91921 1.42499 5.72018L1.42516 5.71459L1.42642 5.71463L1.42665 5.70854C1.43535 5.49068 1.47972 5.28864 1.55588 5.10313ZM11.3276 5.7654C11.3274 5.77439 11.3274 5.78341 11.3274 5.79244L11.3275 5.81194C11.2152 8.44378 13.2194 10.03 15.0944 9.85424C15.2602 9.83141 15.422 9.80162 15.5846 9.76137C17.5598 9.27237 18.389 7.71625 18.5468 6.33912C18.5711 6.12705 18.5795 5.91921 18.5736 5.72018L18.5735 5.71459L18.5722 5.71463L18.572 5.70854C18.5633 5.49068 18.5189 5.28864 18.4427 5.10313C18.2866 4.72274 17.9967 4.41188 17.6064 4.17666C17.3869 4.04439 16.8568 3.8149 16.2541 3.8149L16.0599 3.81479C15.1895 3.8141 13.7634 3.81296 13.2292 3.91255C12.7114 4.00909 12.544 4.07938 12.4724 4.11031C12.1677 4.23021 11.9036 4.43058 11.706 4.68523L11.535 5.79491C11.4656 5.78422 11.3964 5.7744 11.3276 5.7654Z"
                    fill="url(#paint11_radial_7840_3346)"
                  />
                  <path
                    fill-rule="evenodd"
                    clip-rule="evenodd"
                    d="M7.99744 3.54146C8.26889 3.64963 8.51022 3.80382 8.7148 3.9947C8.98693 4.24862 9.33023 4.44125 9.70234 4.43309C9.88871 4.429 10.0856 4.4289 10.2906 4.43413C10.6645 4.44368 11.01 4.2503 11.2835 3.99502C11.4881 3.80399 11.7296 3.6497 12.0012 3.54146C12.1269 3.48777 12.3439 3.4074 12.8819 3.30708C13.2074 3.24641 13.9816 3.21309 14.5043 3.20123C15.0437 3.18898 15.6238 3.18944 16.0575 3.18979L16.2541 3.1899C16.9975 3.1899 17.7309 3.42477 18.0217 3.60005C18.676 3.93209 19.2815 4.56685 19.3249 5.65918C19.3267 5.67551 19.3278 5.69198 19.3284 5.70854C19.3799 7.38878 18.3365 9.79189 15.6765 10.4504C15.4895 10.4967 15.3057 10.5304 15.1214 10.5558C15.1124 10.557 15.1035 10.5581 15.0944 10.5589C12.4646 10.8054 10.7077 8.63926 10.547 6.23145C10.5271 5.9338 10.2703 5.68002 9.97201 5.6801C9.67251 5.68018 9.47169 5.93321 9.45179 6.23204C9.29153 8.63958 7.53312 10.8053 4.90417 10.5589C4.89517 10.5581 4.88618 10.557 4.87722 10.5558C4.6929 10.5304 4.50913 10.4967 4.32216 10.4504C1.66211 9.79189 0.618728 7.38878 0.67027 5.70854C0.670778 5.69198 0.671941 5.67551 0.673742 5.65918C0.717164 4.56685 1.32263 3.93209 1.97693 3.60005C2.26776 3.42477 3.00114 3.1899 3.7445 3.1899L3.94111 3.18979C4.37482 3.18944 4.95488 3.18898 5.49433 3.20123C6.01699 3.21309 6.79125 3.24641 7.11669 3.30708C7.65474 3.4074 7.87176 3.48777 7.99744 3.54146ZM1.55588 5.10313C1.71206 4.72274 2.00196 4.41188 2.39224 4.17666C2.61169 4.04439 3.14179 3.8149 3.7445 3.8149L3.93872 3.81479C4.80913 3.8141 6.23522 3.81296 6.76941 3.91255C7.28719 4.00909 7.45463 4.07938 7.52624 4.11031C7.81968 4.22579 8.07555 4.41593 8.27054 4.65731L8.48412 5.79141C8.53507 5.78181 8.59777 5.7716 8.671 5.76141C8.67117 5.77173 8.67126 5.78207 8.67126 5.79244L8.67116 5.81194C8.78346 8.44378 6.77917 10.03 4.90417 9.85424C4.73842 9.83141 4.5766 9.80162 4.41402 9.76137C2.43884 9.27237 1.6096 7.71625 1.45184 6.33912C1.42754 6.12705 1.41917 5.91921 1.42499 5.72018L1.42516 5.71459L1.42642 5.71463L1.42665 5.70854C1.43535 5.49068 1.47972 5.28864 1.55588 5.10313ZM11.3276 5.7654C11.3274 5.77439 11.3274 5.78341 11.3274 5.79244L11.3275 5.81194C11.2152 8.44378 13.2194 10.03 15.0944 9.85424C15.2602 9.83141 15.422 9.80162 15.5846 9.76137C17.5598 9.27237 18.389 7.71625 18.5468 6.33912C18.5711 6.12705 18.5795 5.91921 18.5736 5.72018L18.5735 5.71459L18.5722 5.71463L18.572 5.70854C18.5633 5.49068 18.5189 5.28864 18.4427 5.10313C18.2866 4.72274 17.9967 4.41188 17.6064 4.17666C17.3869 4.04439 16.8568 3.8149 16.2541 3.8149L16.0599 3.81479C15.1895 3.8141 13.7634 3.81296 13.2292 3.91255C12.7114 4.00909 12.544 4.07938 12.4724 4.11031C12.1677 4.23021 11.9036 4.43058 11.706 4.68523L11.535 5.79491C11.4656 5.78422 11.3964 5.7744 11.3276 5.7654Z"
                    fill="url(#paint12_radial_7840_3346)"
                  />
                  <path
                    d="M2.39231 4.17665C2.61175 4.04439 3.14185 3.8149 3.74457 3.8149C3.8054 3.8149 3.87038 3.81485 3.93878 3.81479C4.80919 3.8141 6.23528 3.81296 6.76947 3.91255C7.28726 4.00909 7.45469 4.07938 7.52631 4.11031C8.19694 4.37424 8.67132 5.02809 8.67132 5.79244L8.67122 5.81194C8.78353 8.44377 6.77924 10.03 4.90424 9.85424C4.73848 9.83141 4.57666 9.80162 4.41408 9.76137C2.13174 9.19632 1.37946 7.20646 1.42523 5.71431L1.42648 5.71463C1.45106 5.04707 1.80993 4.52766 2.39231 4.17665Z"
                    fill="url(#paint13_radial_7840_3346)"
                  />
                  <path
                    d="M2.39231 4.17665C2.61175 4.04439 3.14185 3.8149 3.74457 3.8149C3.8054 3.8149 3.87038 3.81485 3.93878 3.81479C4.80919 3.8141 6.23528 3.81296 6.76947 3.91255C7.28726 4.00909 7.45469 4.07938 7.52631 4.11031C8.19694 4.37424 8.67132 5.02809 8.67132 5.79244L8.67122 5.81194C8.78353 8.44377 6.77924 10.03 4.90424 9.85424C4.73848 9.83141 4.57666 9.80162 4.41408 9.76137C2.13174 9.19632 1.37946 7.20646 1.42523 5.71431L1.42648 5.71463C1.45106 5.04707 1.80993 4.52766 2.39231 4.17665Z"
                    fill="url(#paint14_radial_7840_3346)"
                  />
                  <path
                    d="M2.39231 4.17665C2.61175 4.04439 3.14185 3.8149 3.74457 3.8149C3.8054 3.8149 3.87038 3.81485 3.93878 3.81479C4.80919 3.8141 6.23528 3.81296 6.76947 3.91255C7.28726 4.00909 7.45469 4.07938 7.52631 4.11031C8.19694 4.37424 8.67132 5.02809 8.67132 5.79244L8.67122 5.81194C8.78353 8.44377 6.77924 10.03 4.90424 9.85424C4.73848 9.83141 4.57666 9.80162 4.41408 9.76137C2.13174 9.19632 1.37946 7.20646 1.42523 5.71431L1.42648 5.71463C1.45106 5.04707 1.80993 4.52766 2.39231 4.17665Z"
                    fill="url(#paint15_radial_7840_3346)"
                  />
                  <path
                    d="M2.39231 4.17665C2.61175 4.04439 3.14185 3.8149 3.74457 3.8149C3.8054 3.8149 3.87038 3.81485 3.93878 3.81479C4.80919 3.8141 6.23528 3.81296 6.76947 3.91255C7.28726 4.00909 7.45469 4.07938 7.52631 4.11031C8.19694 4.37424 8.67132 5.02809 8.67132 5.79244L8.67122 5.81194C8.78353 8.44377 6.77924 10.03 4.90424 9.85424C4.73848 9.83141 4.57666 9.80162 4.41408 9.76137C2.13174 9.19632 1.37946 7.20646 1.42523 5.71431L1.42648 5.71463C1.45106 5.04707 1.80993 4.52766 2.39231 4.17665Z"
                    fill="url(#paint16_radial_7840_3346)"
                  />
                  <ellipse
                    cx="6.96133"
                    cy="5.7143"
                    rx="0.933865"
                    ry="1.17444"
                    transform="rotate(-25.8832 6.96133 5.7143)"
                    fill="url(#paint17_linear_7840_3346)"
                  />
                  <path
                    d="M17.6064 4.17665C17.387 4.04439 16.8569 3.8149 16.2542 3.8149C16.1933 3.8149 16.1283 3.81485 16.0599 3.81479C15.1895 3.8141 13.7634 3.81296 13.2292 3.91255C12.7115 4.00909 12.544 4.07938 12.4724 4.11031C11.8018 4.37424 11.3274 5.02809 11.3274 5.79244L11.3275 5.81194C11.2152 8.44377 13.2195 10.03 15.0945 9.85424C15.2602 9.83141 15.4221 9.80162 15.5846 9.76137C17.867 9.19632 18.6193 7.20646 18.5735 5.71431L18.5722 5.71463C18.5477 5.04707 18.1888 4.52766 17.6064 4.17665Z"
                    fill="url(#paint18_radial_7840_3346)"
                  />
                  <path
                    d="M17.6064 4.17665C17.387 4.04439 16.8569 3.8149 16.2542 3.8149C16.1933 3.8149 16.1283 3.81485 16.0599 3.81479C15.1895 3.8141 13.7634 3.81296 13.2292 3.91255C12.7115 4.00909 12.544 4.07938 12.4724 4.11031C11.8018 4.37424 11.3274 5.02809 11.3274 5.79244L11.3275 5.81194C11.2152 8.44377 13.2195 10.03 15.0945 9.85424C15.2602 9.83141 15.4221 9.80162 15.5846 9.76137C17.867 9.19632 18.6193 7.20646 18.5735 5.71431L18.5722 5.71463C18.5477 5.04707 18.1888 4.52766 17.6064 4.17665Z"
                    fill="url(#paint19_radial_7840_3346)"
                  />
                  <path
                    d="M17.6064 4.17665C17.387 4.04439 16.8569 3.8149 16.2542 3.8149C16.1933 3.8149 16.1283 3.81485 16.0599 3.81479C15.1895 3.8141 13.7634 3.81296 13.2292 3.91255C12.7115 4.00909 12.544 4.07938 12.4724 4.11031C11.8018 4.37424 11.3274 5.02809 11.3274 5.79244L11.3275 5.81194C11.2152 8.44377 13.2195 10.03 15.0945 9.85424C15.2602 9.83141 15.4221 9.80162 15.5846 9.76137C17.867 9.19632 18.6193 7.20646 18.5735 5.71431L18.5722 5.71463C18.5477 5.04707 18.1888 4.52766 17.6064 4.17665Z"
                    fill="url(#paint20_radial_7840_3346)"
                  />
                  <path
                    d="M17.6064 4.17665C17.387 4.04439 16.8569 3.8149 16.2542 3.8149C16.1933 3.8149 16.1283 3.81485 16.0599 3.81479C15.1895 3.8141 13.7634 3.81296 13.2292 3.91255C12.7115 4.00909 12.544 4.07938 12.4724 4.11031C11.8018 4.37424 11.3274 5.02809 11.3274 5.79244L11.3275 5.81194C11.2152 8.44377 13.2195 10.03 15.0945 9.85424C15.2602 9.83141 15.4221 9.80162 15.5846 9.76137C17.867 9.19632 18.6193 7.20646 18.5735 5.71431L18.5722 5.71463C18.5477 5.04707 18.1888 4.52766 17.6064 4.17665Z"
                    fill="url(#paint21_radial_7840_3346)"
                  />
                  <ellipse
                    cx="16.9827"
                    cy="5.7143"
                    rx="0.933865"
                    ry="1.17444"
                    transform="rotate(-25.8832 16.9827 5.7143)"
                    fill="url(#paint22_linear_7840_3346)"
                  />
                  <defs>
                    <filter
                      id="filter0_f_7840_3346"
                      x="1.01777"
                      y="2.61467"
                      width="18.7577"
                      height="9.78843"
                      filterUnits="userSpaceOnUse"
                      color-interpolation-filters="sRGB"
                    >
                      <feFlood flood-opacity="0" result="BackgroundImageFix" />
                      <feBlend
                        mode="normal"
                        in="SourceGraphic"
                        in2="BackgroundImageFix"
                        result="shape"
                      />
                      <feGaussianBlur
                        stdDeviation="0.6"
                        result="effect1_foregroundBlur_7840_3346"
                      />
                    </filter>
                    <radialGradient
                      id="paint0_radial_7840_3346"
                      cx="0"
                      cy="0"
                      r="1"
                      gradientUnits="userSpaceOnUse"
                      gradientTransform="translate(15.9368 5.625) rotate(132.839) scale(23.4396)"
                    >
                      <stop stop-color="#FFF478" />
                      <stop offset="0.474827" stop-color="#FFB02E" />
                      <stop offset="1" stop-color="#F70A8D" />
                    </radialGradient>
                    <radialGradient
                      id="paint1_radial_7840_3346"
                      cx="0"
                      cy="0"
                      r="1"
                      gradientUnits="userSpaceOnUse"
                      gradientTransform="translate(15.9368 5.625) rotate(131.878) scale(24.3429)"
                    >
                      <stop stop-color="#FFF478" />
                      <stop offset="0.474827" stop-color="#FFB02E" />
                      <stop offset="1" stop-color="#F70A8D" />
                    </radialGradient>
                    <radialGradient
                      id="paint2_radial_7840_3346"
                      cx="0"
                      cy="0"
                      r="1"
                      gradientUnits="userSpaceOnUse"
                      gradientTransform="translate(9.99933 7.8125) rotate(101.31) scale(11.1541 14.2863)"
                    >
                      <stop
                        offset="0.787821"
                        stop-color="#F59639"
                        stop-opacity="0"
                      />
                      <stop offset="0.972509" stop-color="#FF7DCE" />
                    </radialGradient>
                    <radialGradient
                      id="paint3_radial_7840_3346"
                      cx="0"
                      cy="0"
                      r="1"
                      gradientUnits="userSpaceOnUse"
                      gradientTransform="translate(11.2493 8.75) rotate(135) scale(25.6326)"
                    >
                      <stop offset="0.314853" stop-opacity="0" />
                      <stop offset="1" />
                    </radialGradient>
                    <radialGradient
                      id="paint4_radial_7840_3346"
                      cx="0"
                      cy="0"
                      r="1"
                      gradientUnits="userSpaceOnUse"
                      gradientTransform="translate(9.99933 10.625) rotate(77.692) scale(17.5918)"
                    >
                      <stop
                        offset="0.507903"
                        stop-color="#7D6133"
                        stop-opacity="0"
                      />
                      <stop offset="1" stop-color="#715B32" />
                    </radialGradient>
                    <radialGradient
                      id="paint5_radial_7840_3346"
                      cx="0"
                      cy="0"
                      r="1"
                      gradientUnits="userSpaceOnUse"
                      gradientTransform="translate(10.3118 10.3125) rotate(55.7131) scale(8.32095 6.03145)"
                    >
                      <stop stop-color="#FFB849" />
                      <stop offset="1" stop-color="#FFB847" stop-opacity="0" />
                    </radialGradient>
                    <radialGradient
                      id="paint6_radial_7840_3346"
                      cx="0"
                      cy="0"
                      r="1"
                      gradientUnits="userSpaceOnUse"
                      gradientTransform="translate(12.8118 11.25) rotate(9.86581) scale(7.29539)"
                    >
                      <stop stop-color="#FFA64B" />
                      <stop
                        offset="0.900412"
                        stop-color="#FFAE46"
                        stop-opacity="0"
                      />
                    </radialGradient>
                    <radialGradient
                      id="paint7_radial_7840_3346"
                      cx="0"
                      cy="0"
                      r="1"
                      gradientUnits="userSpaceOnUse"
                      gradientTransform="translate(10.9368 9.375) rotate(43.9708) scale(36.9081)"
                    >
                      <stop offset="0.185425" stop-opacity="0" />
                      <stop offset="1" stop-opacity="0.4" />
                    </radialGradient>
                    <radialGradient
                      id="paint8_radial_7840_3346"
                      cx="0"
                      cy="0"
                      r="1"
                      gradientUnits="userSpaceOnUse"
                      gradientTransform="translate(9.99933 11.1342) rotate(90) scale(6.83594 10.5427)"
                    >
                      <stop offset="0.145833" stop-color="#2E1529" />
                      <stop offset="0.276042" stop-color="#503A4A" />
                      <stop offset="0.342857" stop-color="#4B2744" />
                    </radialGradient>
                    <linearGradient
                      id="paint9_linear_7840_3346"
                      x1="14.179"
                      y1="7.50888"
                      x2="5.38998"
                      y2="10.8608"
                      gradientUnits="userSpaceOnUse"
                    >
                      <stop stop-color="#E78F00" />
                      <stop offset="1" stop-color="#D07000" />
                    </linearGradient>
                    <radialGradient
                      id="paint10_radial_7840_3346"
                      cx="0"
                      cy="0"
                      r="1"
                      gradientUnits="userSpaceOnUse"
                      gradientTransform="translate(13.2024 3.59517) rotate(78.8614) scale(7.6838 15.9226)"
                    >
                      <stop stop-color="#5F5B9B" />
                      <stop offset="1" stop-color="#5C3085" />
                    </radialGradient>
                    <radialGradient
                      id="paint11_radial_7840_3346"
                      cx="0"
                      cy="0"
                      r="1"
                      gradientUnits="userSpaceOnUse"
                      gradientTransform="translate(14.931 6.88341) rotate(78.0636) scale(3.44644 3.87175)"
                    >
                      <stop offset="0.776042" stop-color="#77579C" />
                      <stop
                        offset="0.9375"
                        stop-color="#77579C"
                        stop-opacity="0"
                      />
                    </radialGradient>
                    <radialGradient
                      id="paint12_radial_7840_3346"
                      cx="0"
                      cy="0"
                      r="1"
                      gradientUnits="userSpaceOnUse"
                      gradientTransform="translate(13.6711 6.25142) rotate(-122.735) scale(2.92558 2.14754)"
                    >
                      <stop offset="0.769354" stop-color="#4E3D92" />
                      <stop offset="1" stop-color="#534687" stop-opacity="0" />
                    </radialGradient>
                    <radialGradient
                      id="paint13_radial_7840_3346"
                      cx="0"
                      cy="0"
                      r="1"
                      gradientUnits="userSpaceOnUse"
                      gradientTransform="translate(6.67906 5.66548) rotate(121.845) scale(3.70173 4.20524)"
                    >
                      <stop stop-color="#4C3D70" />
                      <stop offset="1" stop-color="#361C5D" />
                    </radialGradient>
                    <radialGradient
                      id="paint14_radial_7840_3346"
                      cx="0"
                      cy="0"
                      r="1"
                      gradientUnits="userSpaceOnUse"
                      gradientTransform="translate(5.91742 5.76314) rotate(87.1376) scale(4.69336 6.96934)"
                    >
                      <stop
                        offset="0.647365"
                        stop-color="#5B2B84"
                        stop-opacity="0"
                      />
                      <stop offset="1" stop-color="#5B2B84" />
                    </radialGradient>
                    <radialGradient
                      id="paint15_radial_7840_3346"
                      cx="0"
                      cy="0"
                      r="1"
                      gradientUnits="userSpaceOnUse"
                      gradientTransform="translate(4.86273 10.4897) rotate(-99.5134) scale(7.20851 7.13847)"
                    >
                      <stop
                        offset="0.858612"
                        stop-color="#2E1D57"
                        stop-opacity="0"
                      />
                      <stop offset="1" stop-color="#20143D" />
                    </radialGradient>
                    <radialGradient
                      id="paint16_radial_7840_3346"
                      cx="0"
                      cy="0"
                      r="1"
                      gradientUnits="userSpaceOnUse"
                      gradientTransform="translate(5.4682 5.29439) rotate(102.225) scale(4.79626 4.50138)"
                    >
                      <stop
                        offset="0.872281"
                        stop-color="#2E1D57"
                        stop-opacity="0"
                      />
                      <stop
                        offset="1"
                        stop-color="#20143D"
                        stop-opacity="0.6"
                      />
                    </radialGradient>
                    <linearGradient
                      id="paint17_linear_7840_3346"
                      x1="7.36996"
                      y1="4.87215"
                      x2="6.499"
                      y2="6.84839"
                      gradientUnits="userSpaceOnUse"
                    >
                      <stop stop-color="white" />
                      <stop
                        offset="0.973958"
                        stop-color="white"
                        stop-opacity="0"
                      />
                    </linearGradient>
                    <radialGradient
                      id="paint18_radial_7840_3346"
                      cx="0"
                      cy="0"
                      r="1"
                      gradientUnits="userSpaceOnUse"
                      gradientTransform="translate(15.4095 5.41158) rotate(121.289) scale(4.1368 6.21382)"
                    >
                      <stop stop-color="#4C3D70" />
                      <stop offset="1" stop-color="#361C5D" />
                    </radialGradient>
                    <radialGradient
                      id="paint19_radial_7840_3346"
                      cx="0"
                      cy="0"
                      r="1"
                      gradientUnits="userSpaceOnUse"
                      gradientTransform="translate(14.0813 5.76314) rotate(92.8624) scale(4.69336 6.96934)"
                    >
                      <stop
                        offset="0.647365"
                        stop-color="#5B2B84"
                        stop-opacity="0"
                      />
                      <stop offset="1" stop-color="#5B2B84" />
                    </radialGradient>
                    <radialGradient
                      id="paint20_radial_7840_3346"
                      cx="0"
                      cy="0"
                      r="1"
                      gradientUnits="userSpaceOnUse"
                      gradientTransform="translate(14.9492 9.64986) rotate(-77.6023) scale(6.41922 6.35685)"
                    >
                      <stop
                        offset="0.858612"
                        stop-color="#2E1D57"
                        stop-opacity="0"
                      />
                      <stop offset="1" stop-color="#20143D" />
                    </radialGradient>
                    <radialGradient
                      id="paint21_radial_7840_3346"
                      cx="0"
                      cy="0"
                      r="1"
                      gradientUnits="userSpaceOnUse"
                      gradientTransform="translate(14.5305 5.29439) rotate(77.7749) scale(4.79626 4.50138)"
                    >
                      <stop
                        offset="0.872281"
                        stop-color="#2E1D57"
                        stop-opacity="0"
                      />
                      <stop
                        offset="1"
                        stop-color="#20143D"
                        stop-opacity="0.6"
                      />
                    </radialGradient>
                    <linearGradient
                      id="paint22_linear_7840_3346"
                      x1="17.3913"
                      y1="4.87215"
                      x2="16.5204"
                      y2="6.84839"
                      gradientUnits="userSpaceOnUse"
                    >
                      <stop stop-color="white" />
                      <stop
                        offset="0.973958"
                        stop-color="white"
                        stop-opacity="0"
                      />
                    </linearGradient>
                  </defs>
                </svg>