<svg width="16" height="16" viewBox="0 0 16 16" fill="none" xmlns="http://www.w3.org/2000/svg">
<g id="vuesax/outline/filter">
<g id="filter">
<path id="Vector" d="M7.29339 15.1C6.97339 15.1 6.66006 15.02 6.36672 14.86C5.78006 14.5333 5.42672 13.94 5.42672 13.2733V9.73999C5.42672 9.40666 5.20672 8.90666 5.00006 8.65333L2.50672 6.01333C2.08672 5.59333 1.76672 4.87333 1.76672 4.33333V2.79999C1.76672 1.73333 2.57339 0.899994 3.60006 0.899994H12.4001C13.4134 0.899994 14.2334 1.71999 14.2334 2.73333V4.19999C14.2334 4.89999 13.8134 5.69333 13.4201 6.08666L10.5334 8.63999C10.2534 8.87333 10.0334 9.38666 10.0334 9.79999V12.6667C10.0334 13.26 9.66006 13.9467 9.19339 14.2267L8.27339 14.82C7.97339 15.0067 7.63339 15.1 7.29339 15.1ZM3.60006 1.89999C3.13339 1.89999 2.76672 2.29333 2.76672 2.79999V4.33333C2.76672 4.57999 2.96672 5.05999 3.22006 5.31333L5.76006 7.98666C6.10006 8.40666 6.43339 9.10666 6.43339 9.73333V13.2667C6.43339 13.7 6.73339 13.9133 6.86006 13.98C7.14006 14.1333 7.48006 14.1333 7.74006 13.9733L8.66672 13.38C8.85339 13.2667 9.04006 12.9067 9.04006 12.6667V9.79999C9.04006 9.08666 9.38672 8.29999 9.88672 7.87999L12.7401 5.35333C12.9667 5.12666 13.2401 4.58666 13.2401 4.19333V2.73333C13.2401 2.27333 12.8667 1.89999 12.4067 1.89999H3.60006Z" fill="#2E2F32"/>
<path id="Vector_2" d="M3.99995 7.16667C3.90661 7.16667 3.81995 7.14 3.73328 7.09334C3.49995 6.94667 3.42661 6.63334 3.57328 6.4L6.85995 1.13334C7.00661 0.900003 7.31328 0.826669 7.54661 0.973336C7.77995 1.12 7.85328 1.42667 7.70661 1.66L4.41995 6.92667C4.32661 7.08 4.16661 7.16667 3.99995 7.16667Z" fill="#2E2F32"/>
</g>
</g>
</svg>
