<svg xmlns="http://www.w3.org/2000/svg" width="19" height="18" viewBox="0 0 19 18" fill="none">
              <path d="M10.0604 15.4794C10.2823 15.5289 10.3019 15.8198 10.0853 15.889L8.76778 16.3047C5.45733 17.328 3.71454 16.4726 2.63885 13.2987L1.5715 10.1409C0.504152 6.96702 1.38805 5.28815 4.69851 4.26484L4.95954 4.18196C5.36453 4.05338 5.75685 4.46538 5.64473 4.87523C5.61794 4.97316 5.59165 5.07349 5.56573 5.17623L4.74854 8.52596C3.83128 12.2914 5.17381 14.37 9.10133 15.2654L10.0604 15.4794Z" fill="#A9CAFD"></path>
              <path d="M13.9477 1.85081L12.5881 1.53976C9.86912 0.909691 8.2491 1.4281 7.29663 3.3582C7.0524 3.84471 6.85702 4.4349 6.69421 5.11282L5.89641 8.4546C5.09861 11.7884 6.14878 13.4314 9.54348 14.2209L10.9111 14.54C11.3833 14.6516 11.8229 14.7234 12.2299 14.7553C14.7699 14.9946 16.1212 13.8301 16.8051 10.951L17.6029 7.61716C18.4007 4.28336 17.3586 2.63242 13.9477 1.85081ZM12.4172 9.9221C12.3439 10.1933 12.0997 10.3687 11.8229 10.3687C11.7741 10.3687 11.7252 10.3608 11.6682 10.3528L9.29926 9.76259C8.97363 9.68284 8.77825 9.35584 8.85966 9.03681C8.94107 8.71779 9.27484 8.52638 9.60047 8.60613L11.9694 9.19632C12.3032 9.27608 12.4986 9.60308 12.4172 9.9221ZM14.8024 7.22635C14.7292 7.49752 14.4849 7.67299 14.2082 7.67299C14.1593 7.67299 14.1105 7.66501 14.0535 7.65704L10.1052 6.67604C9.77957 6.59628 9.58419 6.26928 9.6656 5.95026C9.747 5.63124 10.0808 5.43982 10.4064 5.51958L14.3547 6.50058C14.6885 6.57236 14.8838 6.89936 14.8024 7.22635Z" fill="#A9CAFD"></path>
            </svg>