<svg width="28" height="28" viewBox="0 0 28 28" fill="none" xmlns="http://www.w3.org/2000/svg">
<g id="vuesax/bold/note-2">
<path id="Vector" d="M14.8717 24.079C15.2169 24.156 15.2473 24.6086 14.9104 24.7162L12.861 25.3629C7.71135 26.9547 5.00036 25.6241 3.32706 20.687L1.66674 15.7747C0.00641733 10.8376 1.38137 8.22605 6.53097 6.63424L7.50542 6.32485C7.91041 6.19626 8.29464 6.6051 8.16914 7.01106C8.06796 7.33834 7.9725 7.6853 7.87998 8.05195L6.6088 13.2627C5.18196 19.12 7.27033 22.3534 13.3798 23.7462L14.8717 24.079Z" fill="#FFBF00"/>
<path id="Vector_2" d="M20.9185 2.87905L18.8037 2.3952C14.5741 1.41509 12.0541 2.22151 10.5725 5.22387C10.1926 5.98067 9.88866 6.89875 9.6354 7.9533L8.39438 13.1516C7.15336 18.3375 8.78694 20.8932 14.0676 22.1215L16.1951 22.6177C16.9295 22.7914 17.6134 22.9031 18.2465 22.9527C22.1975 23.3249 24.2997 21.5136 25.3634 17.0348L26.6044 11.8489C27.8454 6.66302 26.2245 4.09489 20.9185 2.87905ZM18.5378 15.4344C18.4238 15.8562 18.0439 16.1292 17.6134 16.1292C17.5374 16.1292 17.4614 16.1168 17.3728 16.1043L13.6877 15.1863C13.1812 15.0622 12.8772 14.5535 13.0039 14.0573C13.1305 13.561 13.6497 13.2633 14.1562 13.3873L17.8413 14.3054C18.3605 14.4295 18.6644 14.9381 18.5378 15.4344ZM22.2482 11.241C22.1342 11.6628 21.7543 11.9358 21.3238 11.9358C21.2478 11.9358 21.1718 11.9234 21.0832 11.911L14.9414 10.385C14.4348 10.2609 14.1309 9.75223 14.2576 9.25598C14.3842 8.75972 14.9034 8.46196 15.4099 8.58603L21.5517 10.112C22.0709 10.2237 22.3748 10.7323 22.2482 11.241Z" fill="#FFBF00"/>
</g>
</svg>
