<svg width="24" height="24" viewBox="0 0 24 24" fill="none" xmlns="http://www.w3.org/2000/svg">
<g id="vuesax/outline/note-2">
<g id="note-2">
<path xmlns="http://www.w3.org/2000/svg" id="Vector" d="M 8.5035 7.3542 L 8.5036 7.3542 C 8.7094 6.4898 8.9498 5.7839 9.2294 5.2031 C 9.6135 4.4028 10.111 3.778 10.7718 3.358 C 11.4332 2.9376 12.215 2.75 13.1199 2.75 C 13.8093 2.75 14.5892 2.8573 15.4454 3.0635 C 15.4459 3.0636 15.4465 3.0638 15.4471 3.0639 L 17.1129 3.4529 C 17.113 3.453 17.1131 3.453 17.1132 3.453 C 19.0932 3.9123 20.4382 4.6141 21.1452 5.757 C 21.852 6.8997 21.8756 8.416 21.4169 10.3836 L 21.4167 10.3841 L 20.437 14.5632 C 20.4369 14.5634 20.4369 14.5635 20.4369 14.5636 C 20.049 16.2322 19.4904 17.473 18.5983 18.2496 C 17.6855 19.0442 16.5115 19.2801 15.0735 19.1379 c -0.001 -0.0001 -0.002 -0.0002 -0.0029 -0.0003 C 12 18 8 19 7 14 L 8.5035 7.3542 Z L 7.5233 11.5454 C 7.5232 11.5455 7.5232 11.5456 7.5232 11.5457 Z M 15.0414 19.6427 L 15.0414 19.6425 L 15.0283 19.6415 C 14.5409 19.604 13.9784 19.5093 13.3893 19.3645 L 13.3858 19.3636 L 11.7058 18.9636 L 11.705 18.9634 C 9.4561 18.4317 8.0789 17.5961 7.3612 16.4379 C 6.6437 15.2799 6.51 13.6778 7.0367 11.4343 L 7.0368 11.4339 L 8.0168 7.2439 L 8.0171 7.2428 C 8.2313 6.3177 8.4801 5.5879 8.7772 4.9936 L 8.7772 4.9936 L 8.7799 4.988 C 9.5722 3.3529 10.6974 2.6431 11.8807 2.3807 C 13.097 2.1109 14.4136 2.306 15.5655 2.5768 L 15.5662 2.5769 L 17.2355 2.9668 C 17.2356 2.9668 17.2357 2.9668 17.2358 2.9668 C 19.515 3.5025 20.8449 4.3244 21.575 5.4935 C 22.2958 6.6635 22.4485 8.2183 21.9132 10.4956 L 21.9131 10.4959 L 20.9332 14.6756 C 20.5151 16.4551 19.8851 17.6992 19.0558 18.4972 C 18.2395 19.2826 17.184 19.68 15.8099 19.68 C 15.5631 19.68 15.3107 19.6705 15.0414 19.6427 Z" fill="none" stroke="#5F9DFE"/><path id="Vector_2" d="M3.54584 17.3063L3.5457 17.3059L2.26589 13.3565C2.26585 13.3564 2.26582 13.3563 2.26579 13.3562C1.57344 11.2107 1.57532 9.646 2.17543 8.46979C2.77543 7.29379 4.03884 6.37801 6.17403 5.68575C6.1741 5.68573 6.17418 5.6857 6.17425 5.68568L7.75037 5.17693C8.26847 5.01756 8.63019 4.91675 8.94453 4.86286L8.95297 4.86141L8.96135 4.85968C9.06034 4.8392 9.14385 4.87403 9.19796 4.94725C9.25795 5.0284 9.26974 5.13224 9.22789 5.2265C8.94809 5.79854 8.70813 6.50476 8.51278 7.36795L7.53336 11.5555C7.53331 11.5557 7.53326 11.5559 7.53321 11.5561C7.08028 13.4801 7.07669 15.0063 7.80391 16.1786C8.53076 17.3504 9.90089 18.0285 11.8242 18.4865L13.503 18.8862C13.5033 18.8862 13.5036 18.8863 13.5038 18.8864C14.0667 19.0218 14.6003 19.1058 15.0846 19.148C15.1918 19.1585 15.2818 19.2285 15.3176 19.3421C15.3417 19.4467 15.3013 19.5488 15.2166 19.6082C14.6088 20.0223 13.8269 20.3838 12.806 20.7144L12.8037 20.7151L11.2272 21.234C10.1102 21.5834 9.16347 21.75 8.33005 21.75C7.15606 21.75 6.2284 21.4029 5.46806 20.7054C4.69388 19.9951 4.05685 18.8881 3.54584 17.3063ZM8.25607 6.37305L8.55541 5.44178L7.62526 5.74461L6.33674 6.16413C6.3365 6.16421 6.33625 6.16429 6.336 6.16437C4.51759 6.75023 3.24803 7.512 2.6395 8.7069C2.03143 9.90091 2.15854 11.3804 2.74401 13.203L2.7444 13.2042L4.0244 17.1542L4.02452 17.1546C4.6154 18.973 5.37969 20.2442 6.57352 20.8552C7.76753 21.4662 9.24467 21.3418 11.0634 20.756L11.0664 20.755L12.6464 20.235L12.6482 20.2344C12.6846 20.2222 12.7175 20.2103 12.744 20.2007L12.7459 20.1999C12.7741 20.1897 12.7955 20.1819 12.8182 20.1744L14.4886 19.6176L12.7748 19.2134L11.7151 18.9635C11.715 18.9634 11.7149 18.9634 11.7148 18.9634C9.46613 18.4317 8.08897 17.596 7.37131 16.4379C6.65376 15.28 6.52008 13.6778 7.04682 11.4343L7.04691 11.4339L8.02691 7.24392L8.02696 7.24393L8.0285 7.2369C8.09611 6.92783 8.17221 6.63394 8.25607 6.37305Z" fill="#5F9DFE" stroke="#5F9DFE"/>
<path id="Vector_3" d="M17.49 10.51C17.43 10.51 17.37 10.5 17.3 10.49L12.45 9.26002C12.05 9.16002 11.81 8.75002 11.91 8.35002C12.01 7.95002 12.42 7.71002 12.82 7.81002L17.67 9.04002C18.07 9.14002 18.31 9.55002 18.21 9.95002C18.13 10.28 17.82 10.51 17.49 10.51Z" fill="#5F9DFE"/>
<path id="Vector_4" d="M14.56 13.89C14.5 13.89 14.44 13.88 14.37 13.87L11.46 13.13C11.06 13.03 10.82 12.62 10.92 12.22C11.02 11.82 11.43 11.58 11.83 11.68L14.74 12.42C15.14 12.52 15.38 12.93 15.28 13.33C15.2 13.67 14.9 13.89 14.56 13.89Z" fill="#5F9DFE"/>
</g>
</g>
</svg>
