<svg width="20" height="20" viewBox="0 0 20 20" fill="none" xmlns="http://www.w3.org/2000/svg">
<g id="vuesax/outline/search-normal">
<g id="search-normal">
<path id="Vector" d="M9.58335 17.625C5.15116 17.625 1.54169 14.0155 1.54169 9.58329C1.54169 5.1511 5.15116 1.54163 9.58335 1.54163C14.0155 1.54163 17.625 5.1511 17.625 9.58329C17.625 14.0155 14.0155 17.625 9.58335 17.625ZM9.58335 1.79163C5.28184 1.79163 1.79169 5.29086 1.79169 9.58329C1.79169 13.8757 5.28184 17.375 9.58335 17.375C13.8849 17.375 17.375 13.8757 17.375 9.58329C17.375 5.29086 13.8849 1.79163 9.58335 1.79163Z" fill="#2471EB" stroke="#2471EB"/>
<path id="Vector_2" d="M18.3333 18.4583C18.3156 18.4583 18.3001 18.4551 18.2868 18.4497C18.2739 18.4445 18.2599 18.4361 18.2452 18.4214L16.5785 16.7547C16.557 16.7332 16.5437 16.7025 16.5437 16.6666C16.5437 16.6308 16.557 16.6 16.5785 16.5785C16.6 16.557 16.6308 16.5437 16.6666 16.5437C16.7025 16.5437 16.7332 16.557 16.7547 16.5785L18.4214 18.2452C18.4429 18.2667 18.4562 18.2974 18.4562 18.3333C18.4562 18.3691 18.4429 18.3999 18.4214 18.4214C18.4067 18.4361 18.3927 18.4445 18.3798 18.4497C18.3665 18.4551 18.351 18.4583 18.3333 18.4583Z" fill="#2471EB" stroke="#2471EB"/>
</g>
</g>
</svg>
