<svg width="20" height="20" viewBox="0 0 20 20" fill="none" xmlns="http://www.w3.org/2000/svg">
<g id="vuesax/bold/trash">
<g id="trash">
<path id="Vector" d="M17.558 4.35833C16.2164 4.225 14.8747 4.125 13.5247 4.05V4.04166L13.3414 2.95833C13.2164 2.19166 13.033 1.04166 11.083 1.04166H8.89968C6.95802 1.04166 6.77468 2.14166 6.64135 2.95L6.46635 4.01666C5.69135 4.06666 4.91635 4.11666 4.14135 4.19166L2.44135 4.35833C2.09135 4.39166 1.84135 4.7 1.87468 5.04166C1.90802 5.38333 2.20802 5.63333 2.55802 5.6L4.25802 5.43333C8.62468 5 13.0247 5.16666 17.4414 5.60833C17.4664 5.60833 17.483 5.60833 17.508 5.60833C17.8247 5.60833 18.0997 5.36666 18.133 5.04166C18.158 4.7 17.908 4.39166 17.558 4.35833Z" fill="#DADCE5"/>
<path id="Vector_2" d="M16.0248 6.78334C15.8248 6.575 15.5498 6.45834 15.2665 6.45834H4.73317C4.44983 6.45834 4.1665 6.575 3.97483 6.78334C3.78317 6.99167 3.67483 7.275 3.6915 7.56667L4.20817 16.1167C4.29983 17.3833 4.4165 18.9667 7.32483 18.9667H12.6748C15.5832 18.9667 15.6998 17.3917 15.7915 16.1167L16.3082 7.575C16.3248 7.275 16.2165 6.99167 16.0248 6.78334ZM11.3832 14.7917H8.60817C8.2665 14.7917 7.98317 14.5083 7.98317 14.1667C7.98317 13.825 8.2665 13.5417 8.60817 13.5417H11.3832C11.7248 13.5417 12.0082 13.825 12.0082 14.1667C12.0082 14.5083 11.7248 14.7917 11.3832 14.7917ZM12.0832 11.4583H7.9165C7.57483 11.4583 7.2915 11.175 7.2915 10.8333C7.2915 10.4917 7.57483 10.2083 7.9165 10.2083H12.0832C12.4248 10.2083 12.7082 10.4917 12.7082 10.8333C12.7082 11.175 12.4248 11.4583 12.0832 11.4583Z" fill="#DADCE5"/>
</g>
</g>
</svg>
