<svg width="24" height="24" viewBox="0 0 24 24" fill="none" xmlns="http://www.w3.org/2000/svg">
<g id="vuesax/outline/weight">
<g id="weight">
<path id="Vector" d="M17.1801 18.25C16.3742 18.25 15.565 18.0944 14.9663 17.6394C14.3936 17.2041 13.9301 16.4304 13.9301 15V9C13.9301 7.56958 14.3936 6.79586 14.9663 6.36059C15.565 5.90563 16.3742 5.75 17.1801 5.75C17.9859 5.75 18.7951 5.90563 19.3938 6.36059C19.9665 6.79586 20.4301 7.56958 20.4301 9V15C20.4301 16.4304 19.9665 17.2041 19.3938 17.6394C18.7951 18.0944 17.9859 18.25 17.1801 18.25ZM17.1801 6.25C16.3242 6.25 15.5951 6.41286 15.094 6.91395C14.5929 7.41503 14.4301 8.1441 14.4301 9V15C14.4301 15.8559 14.5929 16.585 15.094 17.0861C15.5951 17.5871 16.3242 17.75 17.1801 17.75C18.036 17.75 18.765 17.5871 19.2661 17.0861C19.7672 16.585 19.9301 15.8559 19.9301 15V9C19.9301 8.1441 19.7672 7.41503 19.2661 6.91395C18.765 6.41286 18.036 6.25 17.1801 6.25Z" fill="#5F9DFE" stroke="#5F9DFE"/>
<path id="Vector_2" d="M6.81995 18.25C6.0141 18.25 5.20491 18.0944 4.60622 17.6394C4.03345 17.2041 3.56995 16.4304 3.56995 15V9C3.56995 7.56958 4.03345 6.79586 4.60622 6.36059C5.20491 5.90563 6.0141 5.75 6.81995 5.75C7.6258 5.75 8.43499 5.90563 9.03367 6.36059C9.60644 6.79586 10.0699 7.56958 10.0699 9V15C10.0699 16.4304 9.60644 17.2041 9.03367 17.6394C8.43499 18.0944 7.6258 18.25 6.81995 18.25ZM6.81995 6.25C5.96405 6.25 5.23498 6.41286 4.73389 6.91395C4.23281 7.41503 4.06995 8.1441 4.06995 9V15C4.06995 15.8559 4.23281 16.585 4.73389 17.0861C5.23498 17.5871 5.96405 17.75 6.81995 17.75C7.67585 17.75 8.40492 17.5871 8.906 17.0861C9.40708 16.585 9.56995 15.8559 9.56995 15V9C9.56995 8.1441 9.40708 7.41503 8.906 6.91395C8.40492 6.41286 7.67585 6.25 6.81995 6.25Z" fill="#5F9DFE" stroke="#5F9DFE"/>
<path id="Vector_3" d="M14.1799 12.75H9.81995C9.40995 12.75 9.06995 12.41 9.06995 12C9.06995 11.59 9.40995 11.25 9.81995 11.25H14.1799C14.5899 11.25 14.9299 11.59 14.9299 12C14.9299 12.41 14.5999 12.75 14.1799 12.75Z" fill="#5F9DFE"/>
<path id="Vector_4" d="M22.5 15.25C22.09 15.25 21.75 14.91 21.75 14.5V9.5C21.75 9.09 22.09 8.75 22.5 8.75C22.91 8.75 23.25 9.09 23.25 9.5V14.5C23.25 14.91 22.91 15.25 22.5 15.25Z" fill="#5F9DFE"/>
<path id="Vector_5" d="M1.5 15.25C1.09 15.25 0.75 14.91 0.75 14.5V9.5C0.75 9.09 1.09 8.75 1.5 8.75C1.91 8.75 2.25 9.09 2.25 9.5V14.5C2.25 14.91 1.91 15.25 1.5 15.25Z" fill="#5F9DFE"/>
</g>
</g>
</svg>
